<?xml version="1.0" encoding="UTF-8"?>
<svg version="1.1" viewBox="0 0 2048 1335" width="230" height="150" xmlns="http://www.w3.org/2000/svg">
<path transform="translate(0)" d="m0 0h2048v1335h-2048z" fill="#FEFEFE"/>
<path transform="translate(395,311)" d="m0 0h1252l55 1 14 2 19 6 17 9 13 10 13 13 12 17 10 19 4 13 7 25v449l-4 15-2 4-1 12-8 18-7 11-11 16-9 10-11 9-15 9-18 8-4 1h-333l-36-1v-1l8-2 2-1 1-3 2-1-2-8h-2v-2l-2-2v-2l-2-4 10-9 3-4v-2l-16-4-9-1v-1h15l10 3 1-5 3-7-1-2 16-1 14-4 5-2 2-5 7-7 1-2h2l2-4 5-9h2v-2l3-1 3-6h2l1-13-3-1-1-9 6-14 3-9h2v-11l2-1v-4l4-4 5-14 3-10 3 4 1 18h18v3l2-2 1-3h-2v-5l2-1 5 5 7 5 3 1v2l4 1v2l4 1 8 4 10 3h9l8-3 3-2 12-5 12-3 1-1h7l4 1 1-2 12-1 5 3 4-1 61-5 21-1 13-2 1-34-4-6-9 1-11-5-8-6-2-8-1-20v-221l-2-1h-53l-40 1v33l4 4 17 7 6 4 2 5v135l-2 15-6 21-5 9-11 10-11 5-9-1-9-5-6-5-6-8-3-21-2-9-1-18 1-182h-89l-3 2-5 1-8 8-1 2v10l3 11-2 1 1 3v9l7 8v3l3 1 2 3h4l-2-7h-2l1-3 6 3v3h2v4h2l2 5 1 9h-1v8l-2 6 1 6-1 5v14l2 18v17l-2 10-1 11 1 6v15l-2 7v18l-2 13 3 10-1 10v6l-2 4-2 7-2 3h-7l-6 4h-6l-2 3-5 1-4-4 1-9 1-3 1-5-4 1-1-1-2-1v-2l-4 2-1-6-4-2 2-10 2-7v-8l1-4-2-18-9-31-4-7-9-12-5-5-11-12-12-11-14-12-16-12-14-12-11-9-15-15-2-3v-7l4-6 8-9 11-5h12l12 4 8 5 10 9 8 13 5 11 5 13 4 4 4 1h20l1-3v-99l-1-2-27-1-2 6-5 16-9-3-15-7-16-6-14-5-21-1-10 2-22 12-10 8-8 7-8 10-8 17-3 14-1 10v27l3 17 8 16 10 14 11 12 13 13 14 11 18 13 10 8 8 7 10 9 9 8 8 12 2 6 1 12-3 7-9 8-7 4-4 1h-9l-11-3-12-7-10-10-8-10-6-10-7-13-5-14-7-17-2-3h-8l-2 1h-6l-6-1-2 1-1 4v101l2 6 15 2h7l4-4 4-10 5-1 11 7 13 11 8 4 14 5 2 2h6l1 3 6 4v2l7 1 4 2 6-1 4 3-1 5h-2l1 3-4 3-1 4h-6l-2 1 1 4 2 1h-2l-1 3-10 5-10 4-10 7-2-1 2-5 7-8v-2l-5 3-4 3-4 1-7 6-8 5-4 2 7 2v2h-2l1 4 5-1v-2l3-3 4 1-3 4-3 7-11 17-5 3-3 2v-2l-6 2-4-3 4-2 1-4 8-10 6-9h-2l-1-2h-20l-11 3-12 8-14 11-6 4-6 9h-6l-1-2v-8l-16-5h-15l-6 2-3 2h-3v2l-12 5-11 9-4-1-4 1v-3l-2-1h2l2-9 8-7 10-5 2-4-12-3-26-2-2-1v-2h-4v-2h-16l-8 3-2 1-2-3-16-5-9-2h-8l-11 2v2l-13 4-8 5-8 3-5 6 1 3 2 2h-5l-4-2v-2l-7-1-1 5 5 4 4 2 1 3-4 1v-3l-4-1-6-4-3-1h-11l-8 3h-3v2l-9 3-5 3-12 3-23 2-31 3-45 7-15 4-10 2-15 5-15 6-10 5h-5l2-7-8 1-15 8-10 7-14 9-8 8-1 2h-2l-1 3-3 2-2-6h-141l-26-1h-41l-61 1h-48l-17-3-15-5-16-10-13-12-8-8-12-17-8-16-8-21-2-23-1-241v-202l2-21 5-13 10-22 11-17 9-10 10-9 15-11 9-5 15-6 11-3 9-1z" fill="#CD2A23"/>
<path transform="translate(0)" d="m0 0h2048v1335h-2048zm2034 4-299 1-82 1h-1212l-152-1h-282l-1 1v991l1 108 1 1h2033l1-1v-151l1-948-4-2z" fill="#CD2A23"/>
<path transform="translate(1279,499)" d="m0 0 21 1 17 6 20 8 17 8 4-16 3-6h27l2 3v99l-2 4h-20l-7-3-5-10-5-13-6-11-7-9-10-8-12-5-4-1h-12l-12 6-9 11-1 2v7l9 10 10 10 22 18 18 14 14 12 17 16 7 9 5 5 10 13 7 23 3 11 2 22h-2l1 7-1 7-3 9v2l4 2 1 5 3-1 2 2 2-2 1 3h2v8l-1 4-1 5 1 3h7l2-4h6l6-4 7 1 2-4 2-8 1-5v-9l1-6-3-8 2-14v-17l2-10v-16l-1-3 2-18 1-2v-17l-2-19v-15l1-5-1-5 2-6v-8l1-2-2-11h-2v-4h-2l-1-3-5-2-1 2h2l2 3v4l-4 1-3-3-4-6v-2l-3-1-3-4v-11-3-3l-2-7v-10l5-7 4-1 1-3 7-2 2-1 88 1v184l1 16 4 21 1 9 7 9 10 7 8 2 6-1 10-5 10-9 5-11 5-18 2-15v-135l-2-5-14-7-10-4-3-4v-33l1-1 40-1h53l3 2v221l1 20 2 8 8 6 10 4h6l3-1 5 7-1 34-5 2-9 1-32 2-50 4-5 1-4-3-12 1-5 1h-7l-8 3-9 3-10 4-3 2-6 2h-9l-15-5-7-4v-2l-4-1v-2l-4-1-6-4-6-5-1 5h2l-1 5h-2l-1-2h-15l-2-1-1-8-1-10-2-1-6 19-4 6h-2l1 4-2 4-1 8h-2l-2 9-4 9-2 5 1 6-1 3 4 1-1 9-1 4h-2l-2 6-4 1v2h-2l-1 4-6 9h-2l-2 4-7 8-3 3-5 3-12 3-14 1-2 6-1 4h-2v3l-10-2h-6l16 4 1 3-7 8-6 5 3 3-1 3 2 2-1 2h2l3 5-1 4h-2l-1 4-4 2 39 1h316v2l-11 1-358 1-10 2-7 2-10-1h-14l-1 1 1 12-3 5-8 4-16 7-10 3-18 2-12-2-6-3-5-5-4-1-6 3-9 6-13 6-20 4h-15l-16-5-11-6-8 1-9 5-10 2h-26l-16-4-13-7-7-2-6 1-6 4-10 3h-21l-9-2-11-4-8-4-9-7-9-10-6-10-3-1h-56l-106 1-9 2-19 9-12 8-12 9-13 10-13 11-11 9-14 12-19 13-8 6-5 3-13-1-12-1h-16l6-7 9-11 8-10 7-9 14-15 4-6 3-7 9-10 10-13 1-3h-312l-15-2-12-4-4-3 5 1 9 3 14 2h62l61-1h35l18 1h141l2 3 1 3 3-4h2l2-4 8-8 18-11 6-5 14-7 8-1 2 2-2 2-1 3 6-1 17-8 24-8 14-3 19-4 42-6 39-3 15-3 8-3 6-3h4v-2l11-4h11l8 4 5 3 1 2 2-1-1-2-6-3-3-3 2-5 5-1 3 2-1 2 3-1 1 2h3l-2-4 7-8 9-3 9-5 6-2h4v-2l5-2 6-1h8l15 4 10 3 3 3 5-3 6-1h8l8 2 2 1v2l20 1 16 3 4 2-1 4-7 4-9 6-3 4-2 8 1 2 6-1h2l12-9 10-3v-2l7-4 5-1h15l16 5 1 1v9l6 1 2-5 5-6 5-3 15-12 13-8 9-2h20l1 3h2l-2 5-12 15-1 3-3 2 4 2 5-1h2l3-3 3-1 10-16 5-10 1-1-3-1-1 3h-2v2l-5 2-1-5h2v-2h-6l-2-3 8-4 9-6 5-4 5-2 3-3 4-1-1 4-6 7-2 5 7-4 10-6 10-4 4-2 1-6-2-1 3-2 6 1 1-5 3-3v-2l2-1 1-4-5-2-5 1-11-4v-2l-4-2-5-4-5-1-11-5-8-3-6-4-11-9-11-7-5 1-4 11-4 3-15-1-7-1-2-2-1-5v-101l2-5 6-1 2 1h6l2-1h8l4 7 10 24 3 7 10 19 8 9 7 8 9 7 8 4 9 2h9l8-3 9-7 4-5 1-8-2-11-4-8-8-10-12-11-8-7-13-10-18-13-11-9-10-9-15-15-12-16-8-15-3-12-1-8v-27l3-21 5-12 6-11 12-13 13-10 22-12z" fill="#B32624"/>
<path transform="translate(414,361)" d="m0 0h141l23 1 1 1v31l-2 10-4 2-21 2-1 9v10l3 15 7 22 9 23 7 20 12 33 8 30 12-34 5-11 7-18 10-25 13-35 3-10 1-13-3-15-23-3-4-4v-39l1-1h116v43l-1 1-19 3-15 9-6 7-9 16-9 21-13 34-14 38-10 25-15 39-4 11-4 6-1 4-1 33v73l1 19 3 14 5 11 4 4 7 2 20 3 2 1 1 38-3 5-158 1-6-2v-44l15-2 16-2 4-4 4-12 3-21 1-64v-38l-2-16-7-16-5-13-6-14-5-13-12-29-8-22-12-31-11-28-13-27-6-8-10-7-12-3-8-1-3-3-1-3 1-38z" fill="#FEFEFE"/>
<path transform="translate(791,492)" d="m0 0h31l17 3 12 4 12 7 10 9 6 5 7 10 6 12 4 12 2 11 1 13 2 189 3 6 3 1h7l5-1 3-9 1-8 4-15 3-6 7-3h15l2 1v16l-3 18-4 14-6 14-10 11-11 8-9 4-12 3-14 1-15-3-12-6-15-14-12-12-6-3-8 13-13 13-17 10-13 5-5 1h-18l-11-3-16-9-11-10-8-10-8-16-4-31v-15l4-40 5-11 5-9 10-11 14-11 14-9 20-9 28-10 22-8 4-2 3-8v-41l-4-16-4-6-7-6-3-1h-16l-5 3-7 8-7 16-2 13-2 15-4 8-7 6-11 4h-11l-12-5-8-8-4-10-1-7v-16l3-15 8-16 8-8 8-7 12-9 14-7 17-5z" fill="#FEFEFE"/>
<path transform="translate(1609,511)" d="m0 0h53l3 2v221l1 20 2 8 8 6 10 4 9 2 2 3v26l-1 7-1 1-12 1-26 1-29 3-8 1h-18l-4-7-1-28-3-1-5 3-2 6-3 8-14 14-14 9-9 4-8 1h-24l-13-4-11-8-7-7-7-10-5-17-5-15-2-31-1-77v-88l-3-6-8-7-14-7-1-2v-30l2-5h88v184l1 16 4 21 1 9 7 9 10 7 8 2 6-1 10-5 10-9 5-11 5-18 2-15v-135l-2-5-14-7-10-4-3-4v-33l1-1z" fill="#FEFEFE"/>
<path transform="translate(1065,499)" d="m0 0 25 2 15 5 18 8 11 6 4-1 8-18 2-2 23 1 2 2 1 13v86l-2 4-2 1-19 1-6-4-5-12-4-11-10-16-12-11-13-6-4-1h-10l-12 4-4 2-2 4-4 5-2 9 4 8 16 16 16 12 12 10 14 11 10 9 11 9 10 11 12 17 7 14 4 16 2 11 1 12v12l-3 18-6 20-11 19-7 9-8 8-17 9-13 4-16 1-16-1-21-6-9-5-14-11-10-6-5-1-4 15-2 2-15-1-11-2-2-2v-47l1-62 1-1h15l4-2h6l3 5 4 12 10 24 10 17 12 14 5 5 8 6 14 5h11l8-3 11-10 2-6v-10l-4-11-8-11-11-11-32-24-14-10-13-11-14-14-9-11-6-7-10-19-3-11-1-11v-21l3-26 8-16 7-8 12-13 8-7 14-8 8-4z" fill="#FEFEFE"/>
<path transform="translate(1279,499)" d="m0 0 21 1 17 6 20 8 17 8 4-16 3-6h27l2 3v99l-2 4h-20l-7-3-5-10-5-13-6-11-7-9-10-8-12-5-4-1h-12l-12 6-9 11-1 2v7l9 10 10 10 22 18 18 14 14 12 17 16 8 10 9 13 3 4 5 21 2 4 1 9v33l-4 17-5 16-10 19-10 10-11 8-11 6-10 3-18 1-20-2-20-6-6-4-15-12-5-3-9-1-5 12-4 3-15-1-7-1-2-2-1-5v-101l2-5 6-1 2 1h6l2-1h8l4 7 10 24 3 7 10 19 8 9 7 8 9 7 8 4 9 2h9l8-3 9-7 4-5 1-8-2-11-4-8-8-10-12-11-8-7-13-10-18-13-11-9-10-9-15-15-12-16-8-15-3-12-1-8v-27l3-21 5-12 6-11 12-13 13-10 22-12z" fill="#FEFEFE"/>
<path transform="translate(1148,497)" d="m0 0h23l4 2 2 5 2 27h4l4-2 5 1 2 1v2l9-3 8-7 5-5 3-1 2 1v-2l7-4 17-3 10-5 15-5 2-1 21-1 13 3 6 3-3 1-9-3-21-1-10 2-22 12-10 8-8 7-8 10-8 17-3 14-1 10v27l3 17 8 16 10 14 11 12 13 13 14 11 18 13 10 8 8 7 10 9 9 8 8 12 2 6 1 12-3 7-9 8-7 4-4 1h-9l-11-3-12-7-10-10-8-10-6-10-7-13-5-14-7-17-2-3h-8l-2 1h-6l-6-1-2 1-1 4v101l2 6 15 2h7l4-4 4-10 5-1 2 1v2l-5 2-4 9-5 5-8 1-11-1h-7l-4-4-1-26h-2v8l-1 2h-2v-2l-6-2v-2l-6 1-8-2v-12l-4 6-4 4-7 11h-2l-2 4-4 5-11 9-10 6-9 2v2l-8 3-10 3-9-1-10-2-7-2-10-4-13-5-11-8-3-2-2 3v3l-2 2h-11l-3-1v2l-8 1-8-2-21-1-2-6-1-10h-1l-2-8h-2l-2-4-3-16-3-4-2-8v-5l-4-1 2-1 1-17 4-1 2-9 2-1 3-7v-4h2v7l2 4v-20l3-5h2v-2l4-2 16-1h8l-1-6h-9l-3 3-2-1v-3l3-4-1-10-6-10-7-14-5-8-4-8-2-2v-3h-2l-2-5-3-24 1-25 4-17 3-8 4-7 2-3h2l2-6 8-10 5-5 3-1v-2l10-6 6-2 7-1 7-3 5-2 12-3h24l12 2 9 3-4 1-6-2-25-2-13 2-16 8-12 9-9 9-7 8-4 5-8 16-3 26v21l2 15 4 11 8 15 12 14 11 12 9 9 10 8 17 12 13 10 16 12 13 13 8 13 2 7v10l-3 7-7 7-8 5-4 1h-11l-14-5-13-10-9-11-6-8-10-18-8-20-5-15-1-1h-6l-4 2h-15l-1 62v47l6 2 14 2h7l2-5 3-11 3-1 12 6 12 10 10 6 18 6 17 2h9l15-2 13-5 13-7 10-10 7-11 9-16 5-18 3-18v-12l-2-18-4-18-6-14-12-17-12-14-11-9-10-9-20-16-14-11-10-8-14-14-4-8 2-9 7-9 6-4 10-3h10l11 4 8 5 12 11 9 15 4 11 5 12 5 3 19-1 2-1 1-3v-86l-1-13-1-1-23-1-10 20-4 1-11-6 2-1 4 2h9l3-10 6-8z" fill="#B22524"/>
<path transform="translate(0)" d="m0 0h2048v1104l-6 1-1-5v-146l1-948-8-1-299 1-82 1h-1212l-152-1h-282v1099l-2 1-5-1z" fill="#30171C"/>
<path transform="translate(395,311)" d="m0 0h1252l55 1 14 2 19 6 17 9 13 10 13 13 12 17 10 19 4 13 7 25v449l-4 15-2 4-1 12-8 18-7 11-11 16-9 10-11 9-15 9-18 8-4 1h-8l1-2 7-1v-3l11-2 3-6 4-3 1-6 7-4 10-7h2v-2h2v-2h2v-2h2l2-4 4-6 4-4 5-10 4-10 1-5 3-16 4-22 1-48v-20l1-16v-38l1-4-1-7v-9l-1-4 1-4-1-28 1-24v-22l1-18v-17l1-21v-85l1-12v-29l-2-12-1-9-4-14-3-14-5-21-7-16-7-14-7-10-7-8-4-2v-2l-5-2-12-8v-2h-2v-2l-9-3-8-5-10-4-5-1h-246l-71 1-33-1-88 1h-84l-6 1-33-1-12 1h-190l-14 1h-72l-5 1-1-1-7 1h-31l-3 1-5-1 1 3h-8l-3-1v2l-5-1h-5l1-2h-5l1 2h-8v2h-7l-5 1-14-2-5 1-4-1h-9l-5 2-10 2-2-3h-15l-6-3h-11l-10-1-3-1-12 1-7 1-21-1-4-1-22 1-7 1-27 1-3-1-17 1h-18l-3 1v-2l-15 1h-11l-6 1-13-2-10 1-12-1-3 1h-31l-2-1h-17l-13-2h-20l-12 2-15 5-4 1v2h-4v2h-3l-1 3h-3l-1 3-5 4h-2l-2 5-5 7-5 2-2 4-8 6-1 2h-2v2l-4 4-2 3h-2l-1 4-5 6-3 7h-2l-4 17-2 17v89l1 75 1 238 1 26 1 7v38l10 26 6 10 1 3h2l5 8 4 5-1 2-8-9-9-13-8-16-8-21-2-23-1-241v-202l2-21 5-13 10-22 11-17 9-10 10-9 15-11 9-5 15-6 11-3 9-1z" fill="#B22524"/>
<path transform="translate(407,357)" d="m0 0 5 1 1 1h164v2l2-1 1-2 4 1 1 8-4-1v39l1 4-3 2-7-1-13 4-4 8v7l1 4v8l6 19 2 7-1 4-5-13-7-24-1-7v-10l2-9 3-1 18-2 3-1 2-10v-31l-29-1h-135l-1 38 3 5 18 3 11 7 6 7 11 21 10 24 12 31 9 24 5 13 11 27 7 18 7 16 10 26 1 12v38l-1 64-3 21-4 12-5 5-16 2-15 1 1 44 5 1 158-1 2-4v-38l-26-4-6-3-4-7-4-10-2-11-1-19v-73l1-33 3-7 4-8 5-15 6-14 6-16 6-15 11-29 4-10 1 3-9 25-7 19-8 19-5 15-1 5-3 9-1 14-2 10v30l2 53 1 12-1 9 1 5 1 13 3 11h-2l1 5-3-1v5l8 1v2l8 2v2h2l1 2 10 2 3 4 1 13-1 28-2 2-7 2h-147l-13-1-4-4-1-20-3-3-1-4-1-7 4-8 2-5 5-3v-3l1-4 5-4h2v-2h2l5-10h2l1-4 3-5 2-29v-6l-1-5 1-13v-25l-1-4-2-24-1-8-2-3-3-12-8-26-3-12-3-8v-3h-2l-2-4v-3l-2-1-7-16-3-8-5-12-3-6-4-12-3-6-3-9v-5l-4-8-3-10-6-13-5-10v-2l-4-2v-2l-4-2-3-5v-2l-3-1-1-3h-3v-6h-2v-2h-2l-2-3h-6v-3l-5-1-3-3-3-9-1-7v-15l2-8 5-4z" fill="#B22524"/>
<path transform="translate(609,356)" d="m0 0h7l1 1 12-1 4 1 30 1 50 1 23 1v-3h4l2 3 5 2 3 12-1 9-4 11-1 3h-3l-1 9-3 3-12 3-9 9-8 5-3 1v2l-4 1v-3h3l1-4h2v-2h-6l1 2h-2l-2 4-12 12 2-6 8-12 7-6 12-7 19-3 1-43-116 1v39l3 3 23 3 3 9 1 13-2 10-7 20-11 30-8 19-8 21-5 11-10 29-2 1-8-31-12-33-7-20-5-13-3-14-6-19v-9l-1-3v-7l5-9 13-4 8 1 1-3-1-7 1-34h6l3-1 2-4 6-4 2 4z" fill="#B32624"/>
<path transform="translate(1055,498)" d="m0 0h24l12 2 9 3-4 1-6-2-25-2-13 2-16 8-12 9-9 9-7 8-4 5-8 16-3 26v21l2 15 4 11 8 15 12 14 11 12 9 9 10 8 17 12 13 10 16 12 13 13 8 13 2 7v10l-3 7-7 7-8 5-4 1h-11l-14-5-13-10-9-11-6-8-10-18-8-20-5-15-1-1h-6l-4 2h-15l-1 62v47l6 2 14 2h7l2-5 3-11 3-1 12 6 4 5-2 5v3l-2 2h-11l-3-1v2l-8 1-8-2-21-1-2-6-1-10h-1l-2-8h-2l-2-4-3-16-3-4-2-8v-5l-4-1 2-1 1-17 4-1 2-9 2-1 3-7v-4h2v7l2 4v-20l3-5h2v-2l4-2 16-1h8l-1-6h-9l-3 3-2-1v-3l3-4-1-10-6-10-7-14-5-8-4-8-2-2v-3h-2l-2-5-3-24 1-25 4-17 3-8 4-7 2-3h2l2-6 8-10 5-5 3-1v-2l10-6 6-2 7-1 7-3 5-2z" fill="#B22625"/>
<path transform="translate(2046,1104)" d="m0 0h2v23l-5-2-1-4v-9l1-2h-2v-2l-10 1-306 1h-452l1 2-4 1h-14l-11-1-3 1h-11-4-11l-1-2h-15v2l-10 3h9v2l-28 3-24 1h-7v-3l8-2 8 1v-1h7v-2h-26l-4-1-7-1v-2l-11 1h-12l-14 1-9 1-12-1-11 1-14-1-12-1-2-1-11-1h-601l-305-1h-97l-1 3h-2l-2 4h-2l-1 7-2 5-2 13-3-1v-35h2041z" fill="#B32624"/>
<path transform="translate(659,85)" d="m0 0 6 1 1 2 1 34-3 40 1 63 1 13v10l-11-1-5-4h-7l-8 6-6 1h-8l-6-3-9-12-6-12-5-16-2-20 2-21 8-23 4-8 8-10 8-4h11l11 7 5 3-1-12-1-7v-9l-1-14 6-3z" fill="#B32624"/>
<path transform="translate(474,120)" d="m0 0 11 2 7 5 7 10 5 15 5 21 1 18-3 12-4 20-5 12-6 8-7 6-4 1h-7l-9-3-9-6h-2l2 32v11l-11 1-6-2v-159l1-1h8l6 4 1 4 5-1 4-6 7-3z" fill="#B22524"/>
<path transform="translate(589,1154)" d="m0 0h10l4 2 1 2h8l10 2-2 5v3l5 3 5 5 4 7 1 8v9l-3 9-7 6-10 3-7-2-4 3-7-1-4-2h-3l-13 3-7-1-1-1-14 1h-19l-8-1v-3h-3l-5 1-3-3v2l-6 3-12 1-6-3-6-12v-3l-7 2-2 10-3 2-6-1 1-12v-17l-3-3h-5l-1 4v27l1 2h-7l-3-3v-15l-1-13 3-8 2-2 4-1h9l6 4 6 5 3 3 5 2 2 9 6 8 5 1 6-1 2-3v-8l-4-8-2-1h-8l-3 2h-3l2-10 6-5 9 1 6 4 3 5 1 4 5-5 10-7 2-3 7-1 11 5 1-2-4-1v-2h-2l-1-2-10-2-3 4-5-2-1-5 3-2 22-1 9 2v-2l5-1 7 1 11-2z" fill="#B22524"/>
<path transform="translate(1606,121)" d="m0 0h8l10 4 7 7 4 1 1-8 5-2 7 1 1 1v7l-1 4v112l-5 1-6-3-5-9-7 6-9 7h-13l-7-5-9-12-6-13-4-18-1-10v-17l1-11 7-21 4-8 10-11z" fill="#B32624"/>
<path transform="translate(853,121)" d="m0 0 7 1 2 5 3 3 4-1 5-5h11l1 1 1 66v20l-1 33-2 5-10-2-5-4-6-1-5 8h-11l-8-3-11-11-6-10-4-14-1-11v-31l2-17 3-8 7-10 6-8 6-4z" fill="#B22524"/>
<path transform="translate(1468,120)" d="m0 0 7 1 4 5 3 3 7-1 9-4 5 1v121l-2 2-9-1-4-6-8 1-6 7-3 1h-10l-6-4-9-10-8-15-5-15-1-6v-26l3-16 10-24 11-10 6-3z" fill="#B22524"/>
<path transform="translate(543,121)" d="m0 0h13l6 7 2 6 4-4 5-6 4-1 7 2 1 2-1 10v81l1 29-4 2-9-1-5-9-4 2-4 8-1 1h-12l-8-4-7-7-7-10-3-6-3-17-1-14v-17l3-19 3-13 6-10 6-8z" fill="#B32624"/>
<path transform="translate(702,121)" d="m0 0h12l2 1 1 9 6 1 4-4 3-4 7-1 3 3v100l1 22-1 2h-7l-5-3-5-5-6-1v9h-14l-7-3-11-11-8-14-3-11-1-12v-22l2-22 3-9 7-11 9-10z" fill="#B32624"/>
<path transform="translate(0)" d="m0 0h384v1l-373 1-2-1 1 2 203 1v1l-206 1v1099l-2 1-5-1z" fill="#4E3037"/>
<path transform="translate(1471,1155)" d="m0 0h16l7 2 1 4-2 5 2 1v2l2 2-6 5-4 1h-7l9 3 6 3v-2l5-3 5-5 4-2 7 1 6 5 5 13 4 1v-6l3-6 7-6 13-1 7 2 2 1v2h2l4 5 1 2 3-3h2l5-5 4-5 3-1h7l6 3 7 10v8l-1 9 1 1h11l1-1-7-4-1-7 1-9 1-7 2-2 17-2 5 3 2 3 1 20-1 15-2 7-2 1-19-1-7-2-7-6-4-2-2-9-2-13-1-2-4 1-2 4 1 6v14l8 2-1 5-1 1h-12l-9-3h-4l-4 3-14 1-13-1-10-2-5 1-6 2h-10l-8-7-4-4-7-3-5-4-1-4h-2v-3h2v-2l-5 2h-3l-1 14 2 4-1 4-5 2-7-1-3-3-1-5v-25h-6v2h-4v-2h3l1-6h2l1-2 1-3 1-9 5-5z" fill="#B32624"/>
<path transform="translate(1145,120)" d="m0 0h8l6 4 7 8 10 15 3 12 1 12v25l-1 16-4 15-4 6-9 10-9 7h-10l-7-4-11-11-8-16-3-12-2-22v-11l3-18 5-12 6-9 9-10z" fill="#B32624"/>
<path transform="translate(1710,1153)" d="m0 0h8l2 1h13l8-1h10l1 1 10 1 10 2 19-2 6 3 3 8-1 8v12l3 7 3 1-2 6-6 11-7 3h-11l-6-5-2-5v-5l1-3v-3h-2l-5-11v-3l-2 3h-2v3l2 1-2 4h-2v7h-2l-2 6-2 3-1 7-4 2h-7l-4-4-5-2-2-2-2-4v-3l-6-2-2 5-1 12-5 2-6-1-6-5-2-3-3 1-1 2-7 5-3 1h-12l-7-6-4-8 1-5 8 1 6-7v-3l-2-1v-2h-4v-2l-3-1-2-6 2-3-4 1-1-3-2-1 2-3h2l2-5 4-5 5-2 7 1 7 2 1 6 6-4 4-5z" fill="#B22524"/>
<path transform="translate(2046,7)" d="m0 0 2 1v1096l-6 1-1-5v-146l1-923h1l1 10 1-4z" fill="#53323A"/>
<path transform="translate(946,914)" d="m0 0h8l11 4 5 6 1 4v11l-4 9-5 7h-2l-1 3-8 3-13 1-12-3-17-9-15-6-16-2-30 1-18 3-21 7-23 10-16 8-17 9-14 10-16 10-22 14-14 11-11 8-4 2-4-1 1-5 9-11 11-12 19-19 11-9 14-10 15-9 17-8 24-8 14-3 19-4 42-6 39-3 15-3 8-3 6-3 11-3z" fill="#FEFEFE"/>
<path transform="translate(961,121)" d="m0 0h9l8 4 7 8 8 16 5 17 2 13v15l-13 2h-20l-16-1-6-1 2 12 4 8 6 7h9l6-3 9-10 7-3h8l1 1-1 9-8 16-8 11-9 7-3 1h-8l-6-3-10-9-7-12-5-13-2-13v-27l2-14 4-10 8-15 9-9z" fill="#B32624"/>
<path transform="translate(1328,120)" d="m0 0 6 1 9 6 7 9 8 17 4 12 1 5v24l-1 1-50 1v10l3 7 2 4 5 4 8 1 7-3 5-7 3-5 3-2h13v7l-11 25-7 8-6 4-10 1-7-2-7-6-10-14-4-8-3-9-2-13v-22l3-21 6-14 10-14 9-6z" fill="#B22524"/>
<path transform="translate(581,366)" d="m0 0 4 1 2 3 1 7v15l1 9 8 4 3 2v2l13 2 11 4v2l2 1v4l4 2 1 3-3 6 2 5v6l-3 7-4 8-3 8-1 2h-2l-1 4-3 10v2l-5 5-2-1-1 3h-2l-2 4h-5-2l-1 5h-2v2l-7 2 1 5 1 2-4-1-3-3-5-10v-2h-2l-7-20-4-16-6-19v-9l-1-3v-7l5-9 13-4 8 1 1-3-1-7z" fill="#CD2A23"/>
<path transform="translate(1569,510)" d="m0 0h92v1l-92 2v33l4 4 17 7 6 4 2 5v135l-2 15-6 21-5 9-11 10-11 5-9-1-9-5-1-2 1-2-2-1-1-4-1-6 1-5 1-3 4 2 3 5 4 1 7-1 4-4 2-4 3-2 7-15v-56l1-6-1-18 1-7-1-5v-12l-2-15 1-5-2-6-2-12-3-6 1-7-2-7-12-3v-5l-1-1v4h-2l-1-8v-9h2l2-10 3-3 6-4h2v-2z" fill="#B22524"/>
<path transform="translate(1362,498)" d="m0 0h21l9 2 2 17 1 26-2 30-1 27-2 9-22 4v2h-2v-3h-2v2h-2l-1 4 4 2 2 3v3h2l1 3-1 4 1 9 1 2-1 2-4 1 1 4-7-6-20-18-13-10-10-8-11-9-13-11-14-14-2-3v-7l4-6 8-9 11-5h12l12 4 8 5 10 9 8 13 5 11 5 13 4 4 4 1h20l1-3v-99l-1-2-27-1-2 6-5 16-7-2 4-1v-2h3l2-10 4-8z" fill="#B32624"/>
<path transform="translate(1221,121)" d="m0 0h7l6 3 6 8 7 16 3 11v88l-4 2h-8l-4-2-1-7-1-53-2-20-4-16-3-2-6 1-5 4-2 7-1 10-1 32v40l-5 5h-8l-5-2-2-5 2-62v-29l-1-15-1-10 2-1h12l5 3h4v4l4-4 3-5z" fill="#B22524"/>
<path transform="translate(822,655)" d="m0 0h3l1 5-2 6v53l-2 22-3 12-5 5-7 5-11 3-10-2-10-10-8-14-2-10v-22l4-11 7-11 13-11 16-11 8-6z" fill="#B32624"/>
<path transform="translate(1679,237)" d="m0 0 12 1 17 3 26 8 20 9 13 8 10 8 14 14 9 13 14 22 6 10 2 8-6-4-11-8-10-9-13-10-25-15-14-7-24-8-18-4-16-1-7-3v-15z" fill="#B22525"/>
<path transform="translate(1071,120)" d="m0 0h7l10 5 9 12 6 13 2 7v12l-2 1-9-1-5-4-6-10-6-8-7 2-10 13-3 8-1 6v18l3 12 6 10 4 4 7 1 6-3 7-13 7-6 5-1 3 3 1 3-1 14-6 15-7 9-11 8h-10l-9-6-10-10-6-9-4-12-3-20v-13l2-15 4-16 7-12 8-10 6-5z" fill="#B22524"/>
<path transform="translate(757,124)" d="m0 0h7l5 4 5 5 3 1 1-6-1-4h30l2 3-1 25v63l1 17v14l-3 2h-14l-1-2-1-17v-77l2-14-4 1-4 4-4 9-7 7-2 3-1 11-1 75-1 1h-10l-2-7-1-10v-104z" fill="#B22524"/>
<path transform="translate(1680,169)" d="m0 0 25 5 19 5 24 10 11 7 16 12 17 17 14 19 9 14 6 14-1 3-12-9-10-10-17-13-17-11-16-8-15-6-19-6-24-5-11-2-1-1v-27l1-7z" fill="#B32624"/>
<path transform="translate(396,238)" d="m0 0 7 1 1 7-1 20-1 7-4 2-19 1-20 4-25 9-23 12-20 12-13 11-12 9-5 2-3-1 8-12 8-10 7-11 7-9 10-13 9-9 19-11 21-10 25-8 11-2z" fill="#B22524"/>
<path transform="translate(399,169)" d="m0 0h3v36l-22 3-23 6-19 7-25 12-15 10-13 11-10 9-9 6-6 1 7-16 13-17 4-6 4-7 10-10 14-11 12-9 13-8 15-6 18-5z" fill="#B22524"/>
<path transform="translate(739,628)" d="m0 0 3 1-1 3-5 5-3 4 4-2 1 1 8-1 1 2-12 7-14 11-9 8-6 8-7 14-1 3-4 40v15l4 31 8 16 12 14 11 8 13 7 9 2h18l11-3 16-8 10-7 11-11 7-12 2-1 8 6 18 18 11 8 11 4 12 2 18-2 12-4 10-6 3-3 2 1-7 7-15 6-12 4-11 1-18-5-14-8-13-12-3-1-2 3-1-1-2 3-8 1-1 2h-8v2h-2l-3 3-5 1-1 2-6 1-15 8-14 5-7 2-16-2-16-8-9-6-4-3-5 1-1 2-9-1-7-4v-2l-4-2-4-4-5-9v-2l-3-1-3-7-3-9h2l-2-4v-8l1-10 1-11v-12l4-10h-1l-1-7 4-12 2-13 6-7 5-10h2l1-6 5-3 4-6 10-11 4-3h2l1-3 4-1v-2h2l1-3 4-2 2 1v-2z" fill="#B22525"/>
<path transform="translate(1663,510)" d="m0 0h7l5 2 1 2 2 31 1 28 1 19 1 84v39l1 29 2 9 3 4 5 10-2 5 2 1h-6l-11-5-8-6-2-8-1-20v-221l-2-2z" fill="#B32624"/>
<path transform="translate(788,533)" d="m0 0h16l7 4 7 8 3 8 2 10v41l-3 8-10 5-14 5h-3l2-6h-7v-2l-12 2-3-2-1-4 1-7 1-4h2l3 6 2-1 1-3h3l5-7 5-2 1-3h-2v-2l-3-1 1-2h-7l-2 4-6-1v-6l-4-7-2-4-2 10-1 11v4l-3 2h-3v3h-2l-1 3-1 5h3l1 2h-2l-1 4-13 5-4 1-3-2v-5h-7v-2l-2-1v-3l-4-2 6 1h11l12-5 6-5 4-11 2-20 5-14 6-10 7-7z" fill="#B32624"/>
<path transform="translate(1255,680)" d="m0 0 8 6 13 10 11 8 13 10 15 14 8 7 8 12 2 6 1 12-3 7-9 8-7 4-4 1h-9l-5-1v-1h13l-2-2-8-1-7-5h-7l-5-3-7-8-6-7-5-7 1-2h-2l-2-6-2-1-2-4 1-2h-2l-2-5v-2-3h-2l-1-6h2v-14h3l6 8 5 8 1 9h2l3 6v2h2l3 6v3l6 2 1 8h2v2h3v2l5 1 1-4 2-5 3-2-1-7v-5h-2v-2l-4-2-6-7-2-1v-2l-4-1-3-5-7-3-7-7v-2h-2v-3h-2v-2h-7l-4-2-1-6 1-4 3-1-1-4h3l1 2 2-1z" fill="#B22525"/>
<path transform="translate(821,1170)" d="m0 0h6l6 4 5 6 3 8-3 5-4 7 2-3h2l1 5 3 1-1 5-4 6-3 3h-12l-3-3-1-5-5-2-4-3h-3l-6 9-6 3h-11l-5-5-3-7-1-8-4 1-4 10-1 8h-7l-1-1 1-10v-17l-2-4-8-3 1 6v19l-3 9-2 1h-6v-25l-1-7-2-2-8 1v23l-2 7-5 3-5-1-1-36 5-5 3-1h10l9 2h6l2-2h8l7 3 6 15 2 3 3 1 2-12 5-8 1-1 8-1 4-1 11 8 10 2 5 16v12l10-2-1-7-5-15-7-9 2-5z" fill="#FEFEFE"/>
<path transform="translate(1406,86)" d="m0 0h14l2 1 1 6-2 9 1 11 1 8 2 2 5 2 3 4v7l-3 9-5 7-2 11-1 19v48l1 15-5 3h-10l-3-1-2-9-1-80-1-7-7-6-1-2v-10l2-7 3-1 2 1 2-4 1-1v-32z" fill="#B22524"/>
<path transform="translate(1288,1155)" d="m0 0 14 1 3 4 3 7 2 5h-3l-2 4 8-2 7-3h12l10 5 3 3-1 3-10-2-9-1-2 2v5l12 5 5 3 2 3v9l-4 5-4 1-1 4-4 1h-8l-7-3-9-6-4-5-2-1 2 6h2l3 6-2 2h-10l-4-2v-2l-3-1v-9h2l-1-4-2 2-4-4v-4l-2-1 3-5-4 1v21l-5 5h-8l-4-4-2-20-3-9-8-16v-4l7-1 5 5 5 10 4 2 4-1 4-9-1-2 8-8z" fill="#B32624"/>
<path transform="translate(961,1157)" d="m0 0h11l8 4 4 4 3 5-1 5-8 11-11 13-4 8 10-2 11-9 3-4h2l2-5 3-8 3-5h8l-3-7h-4l-3 4h-3v-4l4-1-1-6 3-3h9l5 5 1 4 1 18 2 8 5 1 10 11 2 1h9l1-4-4-7-8-3-7-6-4-12v-6l7-8 4-2 12 1 6 4 4 7 1 4-1 25-3 9-5 6-5 2h-10l-5-5-3-6 1-3h-6l-2 1-2 10-5 4-3 1h-7l-6-6v-5l15-5 3-3-1-6-14-1-3 9-5 1-2 5-6 9-2 1-16 1-5-3-2-3 1-9 10-17 7-8 3-4v-5h-9l-9 6-3-1-1-6 4-8z" fill="#FEFEFE"/>
<path transform="translate(325,1160)" d="m0 0h2l3 5 1 6 2-1 1-3h5l3 7 1 10 7-1 1-4 4-2 5 2 1-3-1-4 2-1 1 2 1-2h2l2-10 2-1-1 6-1 40v6l6 2 3-1v-20l5-4 3 3 5 15v2l5 2 4 3h8l7-4 5-7 2-5v-10l-2-2-3 5-5 7-4 7-4 2-4-2-2-4v-18l9-10 1-5 2 3 1 2 7-1-4 4 1 5 4 1 1-1h5l5 8 2 9-1 8-5 6-4 4 14-1 4-8 1-3v-13l-4-13-4-6 4 2 1 3 3-1v4l3 8 2-1-2-3 1-5h2l1-4 6-2 7-3h8l8 5 2 3-4-2-5-3h-9l-5 2-3 8 1 20v8l2 2h6l-1-1v-27l2-4 5-1 4 4v17l-2 12h6l2-1 2-10 2-2h6l5 12 1 3 6 2-4 1h-7l-4-7-2-2-4 7-4 1-20-1-5-5-2-5h-2v2h-2v2l-2 1 1 2-5 3-3 2-21-1v-2l-7 2-8-1-5-2-6 2-5-1-5 1h-7l-5-4-2-8-8-2-7-6-1-8h-3l-2 4-2 5-2 1-7-4-1 9 13 1v7h-1v-6l-2 1h-11l-2-1-1-10z" fill="#B22625"/>
<path transform="translate(1285,82)" d="m0 0h5v23l-4 6-5 4-1 3 1 3 6 3 4 6v16l-2 3-5 2-2 35-1 61-1 1h-12l-1-4-1-17-1-75-2-2-6-2v-8l1-6v-8l7-6v-8l5-14v-8l5-4z" fill="#B22524"/>
<path transform="translate(879,520)" d="m0 0 6 5 6 10 8 18 5 17 1 5 2 1v9l1 8v60l1 21 1 9 1 13v7l4 18 4 9 2 3-1 4 12-6 4-1h20l3 3 1 9-6 24-1 9-2 11-4 5-5 2 7-21 3-17 1-6 1-16h-17l-7 3-4 11-3 13-1 7-3 7-5 1h-7l-5-3-2-5-2-189-2-19-3-12-6-14-7-10z" fill="#B22524"/>
<path transform="translate(990,926)" d="m0 0h7l4 2v3l6-2 1 5 5-1 1-3h3v2h9v1l-9 2-9 6-12 4-3 3-6 1 2 2v3l4-2 5 1 9 6 12 6 3 3-1 4 2 1-7 2h-3v-2l-2 1 1 5 5 5 5 8 3 10-2 4-4 1h-11l-14-1-9-3-7-5-6-7v-2l-4-2-6-5-1-6 4-2 15-1 15 2 14 6 2 1-7-4-9-5-3-2h-2v-2l-12 1-7-1-9 5-4 3v-2l-2-1 4-9v-4l-3-1 5-4h2l2-5 3-3 4-10 1-4h7l1 4v4l1 5 1-1 8-2v-4l-3-1v-10z" fill="#CD2A23"/>
<path transform="translate(1122,1156)" d="m0 0h15l9 3 8 7 1 2v6l-4 2-5-5-5-4-2-1h-10l-3 4 1 7 9-1 3-1h8l3 4v8l-2 2-4 1h-10l-5-1-3 3v9l2 3h12l6-4 6-8 6-2 2-7 4-5h2l2-4 8-4 5 1 5 5 7 10 10 6 4 5v7l1 4 10-2-1-6-2-3-2-16-10 1-2 7h-1v-12l4-4 5-2h8l6 4 3 5 1 5v24l-2 4-7 3h-8l-8-4-7-8-6-8-10-13h-8l-3 7-2 5-15 15-6 4-3 1h-18l-5-3-3-5-1-6 1-35 3-8z" fill="#FEFEFE"/>
<path transform="translate(1113,1153)" d="m0 0 4 3 6-2 12-1 12 5 4 5-10-5-4-1h-15l-3 3-2 6-1 35 2 8 3 4 3 1h18l6-3 10-9 8-8 3-10 2-2h8l8 10 4 6h-3v15l-4 4-3 1h-7l-5-2-8-2v-2l-4-1-2 4-8 1-14 2-12-2-5 1v-2l-3 1-3-2-12-2-1-3h-9l-1 2-8-2-4-2 1-6-3-4-2 1v6l-3-1-1-7-1-3 3-1 1-2-2-1 3-2h3v2l5-3 5-2h5l6 6v-5h-2l-2-5-4-4v-5l4-4h2l2-5 5-5 7-3z" fill="#B22524"/>
<path transform="translate(1910,1157)" d="m0 0 8 1 4 3 5 18v19l-4 10-3 5-7 2h-8l-9-10v-3l5 2 7 1 5-5 1-7v-3l-9-1-8-5h-3v17l-7 11-7 3h-8l-6-5-4-11v-24l4-11 5-6h12l4 2 1 3-1 1 12-1 4-4z" fill="#FEFEFE"/>
<path transform="translate(1181,609)" d="m0 0 2 4h2l4 6 3 12 7 9 6 9 2 2 1 4 4 4 2 5 9 10-1 4-3 3h-2l-1-6h-3l-1 5 2 1-1 3-2-1-7 2h-8l-5-4-1-4-4-1-1-3h-6l2 9 2 6v8l-2 1-3-12-1-5-4-2-8-12-2-4-3-1-8-11 4-1 2-3 9 2-3-6-4-4-4-10-3-1-2-5h-4l-3-5 1-4 1 2 6 1 10 4h6l4 1 4-3z" fill="#CD2A23"/>
<path transform="translate(1515,123)" d="m0 0h7l6 9 3 3 8-11 6-1 3 3v9l-1 10-4 6-6 4-3 1-2 19-1 72-6 2h-10l-2-7v-118z" fill="#B22524"/>
<path transform="translate(965,1154)" d="m0 0 8 1 8 5 2 4-8-5-3-1h-11l-4 1-2 5-1 7 1 2 5-2 6-4h7l3 3-1 4-7 9-4 5-8 14-1 9 3 4 8 2v1l-14-1-4 1-6-1h-10l-3-2v-4l-2-1-5-8-1-6-3-1v-3l-3-1-1-7 1-6 4-1-2-1 2-5 1-6 6-3 2-3 4-1 4-2h5l5 1 13-1z" fill="#B22625"/>
<path transform="translate(1144,146)" d="m0 0 6 1 9 10 6 9 1 2 1 16-2 18-6 12-7 8-7 1-5-3-6-9-5-12-2-11v-12l4-13 7-9z" fill="#FEFEFE"/>
<path transform="translate(1628,1169)" d="m0 0 7 1 4 5 1 20-1 15-2 7-2 1-19-1-7-2-7-6-4-2-2-9-2-13-1-2-4 1-2 4 1 6v14l8 2-1 5-1 1h-12l-4-6-1-13v-16l3-5 4-5 3-1h7l6 3 7 10v8l-1 9 1 1h11l1-1-7-4-1-7 1-9 1-7 2-2z" fill="#B32625"/>
<path transform="translate(1447,790)" d="m0 0h8l1 1-1 9-4 15-9 16-11 15-5 5-14 10-8 3h-9l-2-1v-8l13-26 6-11 9-10 11-9 10-7z" fill="#FEFEFE"/>
<path transform="translate(1391,802)" d="m0 0 9 1 2 2-1 10-10 18-2 8-12 16-7 7-13 8-11 5h-4l-1-3 1-11 5-13 5-9 2-9 7-8 5-5 10-9 12-7z" fill="#FEFEFE"/>
<path transform="translate(659,505)" d="m0 0 1 3-9 25-7 19-8 19-5 15-1 5-3 9-1 14-2 10v30l2 53 1 12-1 9 1 5 1 13 3 11h-2l1 5-3-1v5l8 1v2l8 2v2h2l1 2 8 2v1l-12-1-12-2-6-3-4-7-4-10-2-11-1-19v-73l1-33 3-7 4-8 5-15 6-14 6-16 6-15 11-29z" fill="#B32625"/>
<path transform="translate(1014,694)" d="m0 0m-11 0h7l4 2-5 3h-15l-1 62v47l6 2 14 2h7l2-5 3-11 3-1 12 6 4 5-2 5v3l-2 2h-11l-3-1v2l-8 1-8-2-21-1-2-6-1-10h-1l-2-8h-2l-2-4-3-16-3-4-2-8v-5l-4-1 2-1 1-17 4-1 2-9 2-1 3-7v-4h2v7l2 4v-20l3-5h2v-2l4-2z" fill="#B32624"/>
<path transform="translate(703,149)" d="m0 0 7 1 8 7 5 8 2 5 1 6v14l-2 10-7 14-2 3h-2l-1 3-5 2-5-1-6-7-7-16-2-10v-10l3-11 6-12z" fill="#FEFEFE"/>
<path transform="translate(846,150)" d="m0 0h7l6 5 6 9 3 10v23l-4 10-7 12-4 2-7-1-5-4-7-14-2-7v-22l4-12 6-8z" fill="#FEFEFE"/>
<path transform="translate(624,148)" d="m0 0h7l8 6 5 10 2 5 2 12-2 19-3 9-6 9-5 3h-6l-6-5-5-10-3-15v-10l2-14 4-10z" fill="#FEFEFE"/>
<path transform="translate(547,148)" d="m0 0 4 1 6 4 4 5 7 15 1 13-2 14-11 19-8 2-7-4-5-7-2-8-1-9v-17l3-16 7-9z" fill="#FEFEFE"/>
<path transform="translate(473,149)" d="m0 0 5 1 6 5 5 10 2 11v20l-2 11-5 8-5 5h-7l-6-4-4-5-5-12-1-4v-22l6-15 4-5z" fill="#FEFEFE"/>
<path transform="translate(104,1155)" d="m0 0h11l12 3 6 5 3 9v6l5 1 1-2 1 22 3 13 4 3h14l4-4 1-2h10l4-5h2v-2l7-5v-5l-10 3-4 4-4-2-2-3-1-9 3-6 3-3 6 1 7 4 3 5 2 9v10l-6 5-7 2 3 3h11l7-3 2-3v-21l-2-14 3 2 2 7v24l-3 7h-2v2l-7 2h-9l-6-3-2-4-9-1-1 4-4 3-13 1-7-2h-10l-7 1-13-1-7-1h-9v-1l8-1-1-5-4-4v-11l1-7 5 3 6 7 7 5 4 2 1 11 8 1-1-10-2-5-4-5-4-3-1-8-7-3-9-3-1-1v-8l2-4h12l5 5 2 7v6l6-3 1-2v-9l-3-6-4-3-8-2h-19l1-2z" fill="#B32625"/>
<path transform="translate(1608,149)" d="m0 0 9 3 5 4 4 6 2 10v27l-3 11-5 6-6 4h-6l-5-3-7-14-2-12v-11l3-16 6-12z" fill="#FEFEFE"/>
<path transform="translate(1371,125)" d="m0 0h15l1 4v119l-1 1h-11l-4-3v-69l-1-51z" fill="#B32625"/>
<path transform="translate(1465,149)" d="m0 0 12 7 6 8 1 12v18l-2 12-5 9-5 5h-8l-6-5-6-12-3-12v-9l2-11 7-16z" fill="#FEFEFE"/>
<path transform="translate(667,1156)" d="m0 0h10l10 5 9 7 7 9v32l-2 4-5-1-3-10-8 11-3 2-11 1-10-5-3-4-2-9v-5l5-2 8 11 8 2 7-3 4-5-16-8-4-3-8-4-3-3v-8l3-7 3-5z" fill="#FEFEFE"/>
<path transform="translate(376,1156)" d="m0 0h9l11 2 6 4 5 6v5l-7 7-2 3v18l3 5 5-1 9-14 4-6 3 3v10l-5 10-7 6-3 1h-8l-9-6-7-19-5 3v20l-6 2-5-3v-17l1-29 3-7z" fill="#FEFEFE"/>
<path transform="translate(1425,872)" d="m0 0h8l1 1-1 10-6 11-6 9-7 8-11 9-11 5-4 1h-15l-2-3 1-6 8-11 8-10 9-10 6-5 18-8z" fill="#FEFEFE"/>
<path transform="translate(192,1170)" d="m0 0 9 2 3 4 2 12v21l-4 5-6 2h-11l-3-2v-2l10-5 2-2v-10l-3-11-4-4-6-3-5 1-3 4-1 7 2 7 4 2h2l2-4 5-2h5l1 5-6 5h-2v2h-2l-2 4-4 2-8-1-2 5-3 2h-14l-5-4-3-13v-22l3-2h5l1 2 1 30 11-1v-10l-2-22 1-1 19-1z" fill="#FEFEFE"/>
<path transform="translate(1496,510)" d="m0 0h13l22 1 3 9 1 22 2 22v7l1 9v12l-2 1-1-2-1 9h2l1 2v6l-1 6v11h-1l1 13-1 4v57l1 4v14l-1 1v8l1 13-1 5-2-2-3-21-2-9-1-18 1-182h-88v-1z" fill="#B32624"/>
<path transform="translate(498,1170)" d="m0 0 9 1 6 4 2 4v9h3v18l-3 7-9 3-8 1-5-2-6-12v-3l-7 2-2 10-3 2-6-1 1-12v-17l-3-3h-5l-1 4v27l1 2h-7l-3-3v-15l-1-13 3-8 2-2 4-1h9l6 4 6 5 3 3 5 2 2 9 6 8 5 1 6-1 2-3v-8l-4-8-2-1h-8l-3 2h-3l2-10z" fill="#FEFEFE"/>
<path transform="translate(1051,978)" d="m0 0h12l13 3 14 7 16 13 6 6-1 5-5 2h-29l-9-3-11-8-12-11-6-7-2-1 1-3z" fill="#FEFEFE"/>
<path transform="translate(1252,1156)" d="m0 0 5 1 5 5 5 11 3 4-4-2-3-4-5-10-7-1h-2l4 11 6 10 2 8 2 20 3 3h8l4-4v-12h2v13l-4 5-2 1h-8l-5-2-1-2-1-12-2-3v-4l-3 1v-2l-4 3-1 3h-2l-1 3-3 1-7-3h-3l-3 3-3 11-2 1 1-4v-24l-3-9-6-4h-8l-7 3-1 2v11l2-6 2-1h8l3 16 3 5-1 5-2 1h-8l-2-6v-5l-3-3v-2l-5-2-6-4 2-1 4 2v-9l3-5 7-3 7-1 8 4 3 2 4-3v-7l4-2v-2l9-1 7-3z" fill="#B32624"/>
<path transform="translate(1930,1152)" d="m0 0h5l6 5 13-1 3 2v3h2l1 9-1 7-1 1-2 32-2 4-8 1-5-5-4-1-2-3v-12l1-3-2-7-1-7-5-1 1 9-1 15-3 7-1-3 2-6v-19l-5-18v-3l4-1z" fill="#B22525"/>
<path transform="translate(1558,123)" d="m0 0h7l3 2 1 5v117l-1 2h-10l-2-2-1-12v-67l2-44z" fill="#901F21"/>
<path transform="translate(1153,988)" d="m0 0h29l6 3 8 5 7 3 1 1-1 7-10 5-14 3-16 1-13-2-15-8-6-2-1-5 16-8z" fill="#FEFEFE"/>
<path transform="translate(784,1155)" d="m0 0h9l5 4 1 7v3l4 6 4 2h6l5-3 4 6 4 5 6 17-1 5-11 3v-13l-4-13v-3l-10-1-11-8-12 2-5 8-2 13-5-2-5-10-2-8-7-2h-8l-2 2-11-1-4-1h-10l-6 3-1 2 1 36 4 2-4 1h-12l-8-2-3 2h-24l-7-4-1-2 10 4 11-1 5-5 6-9h1l3 12h4l1-3v-24l1-8 2 3 7-2 5-6 9-2 16 1 15-1 8 4 6 13 4 1 1-7 4-8-2-5h-2l-1-2v-6l6-3z" fill="#B32624"/>
<path transform="translate(1150,911)" d="m0 0h14l11 3 2 2-1 7-7 7-10 6-5 4-9 3-5 1h-14l-20-1-2-2 1-4 8-7 12-9 18-8z" fill="#FEFEFE"/>
<path transform="translate(1021,886)" d="m0 0h12l3 2 16 3 4 2v5l-10 7-24 12h-10l-19-3-9-3-2-2 1-6 6-5 10-5 10-4z" fill="#FEFEFE"/>
<path transform="translate(1240,670)" d="m0 0 4 2 8 8 5 3v4l-5-2 1 5-4 2 1 2h-2l2 6 10 2v2h2v3h2l1 4 5 2 1 3 7 2 3 3 1 3 3 1v2l4 2 6 7 2 1v2h2l1 7 1 5-4 2-3 9-5-1v-2h-3v-2h-2l-2-8-5-2-3-9h-2l-3-5v-3h-2l-3-11-7-10-4-3v10l-1 3h-2v3h-2l-1-7-4-2-4-12-1-5 3-1-2-2-5 2h-8l-5-2h-4l2-7 6-1 5-1v2l12 2 3-1-4-12z" fill="#CE2B23"/>
<path transform="translate(1288,1157)" d="m0 0h11l4 2-1 4-12 3v5l6 5 2 4 2 13 4 1 6 7 13 8h8l-1-7-10-7-1-2-8-2-3-3v-6l3-5 9-6h12l10 5 3 3-1 3-10-2-9-1-2 2v5l12 5 5 3 2 3v9l-4 5-4 1-1 4-4 1h-8l-7-3-7-6-7-8-1-1-1 9 1 5-1 1h-5l-2-5v-19l-2-5-8-9-1-4 2-11 3-3z" fill="#FDFDFD"/>
<path transform="translate(1093,898)" d="m0 0h11l18 2 4 2-2 4-5 4-9 7-11 8-13 6h-18l-11-3-3-2-1-3-2-1 2-4 11-7 15-9 9-3z" fill="#FEFEFE"/>
<path transform="translate(1311,866)" d="m0 0 5 1 1 4-8 14-3 8-6 9-6 7-9 6-12 6-10 3-6-1-2-4 2-4 4-4 11-18 9-10 5-4 13-8z" fill="#FEFEFE"/>
<path transform="translate(1204,940)" d="m0 0h15l15 3 2 3-2 3h-2l-2 4-6 7-11 8-9 2h-24l-8-2-5-6 1-5 7-6 5-3 4-3 8-3z" fill="#FEFEFE"/>
<path transform="translate(1237,889)" d="m0 0h20l1 3h2l-2 5-13 16-15 10-7 2-9 1h-20l-2-1 1-6 7-8 15-12 13-8z" fill="#FEFEFE"/>
<path transform="translate(1111,954)" d="m0 0 10 1 15 6 7 3 4 2 3 6-1 4-9 4-14 5-3 1h-13l-10-5-16-9-3-5v-3l11-4 12-5z" fill="#FEFEFE"/>
<path transform="translate(1024,935)" d="m0 0h8l24 10 9 6 2 5-12 5-18 6h-11l-9-4-14-7-7-6-1-3 9-4 8-4 7-3z" fill="#FEFEFE"/>
<path transform="translate(1328,943)" d="m0 0h24l15 3 1 4-13 12-8 6-12 5-16 1-7-3-10-2-2-3 1-5 18-15z" fill="#FEFEFE"/>
<path transform="translate(1301,920)" d="m0 0 16 1 2 2-1 5-4 5h-2l-2 5-10 10-14 10-8 2h-20l-4-4 18-21 10-8 11-5z" fill="#FEFEFE"/>
<path transform="translate(974,973)" d="m0 0 17 1 16 6 9 7 7 8 2 9-2 2-4 1h-11l-14-1-9-3-7-5-6-7v-2l-4-2-6-5-1-6 4-2z" fill="#FEFEFE"/>
<path transform="translate(1236,978)" d="m0 0h25l6 3 2 4 4 2 8 6v6l-15 6-16 2h-10l-9-4-5-5-8-5-2-6 5-5z" fill="#FEFEFE"/>
<path transform="translate(1838,1157)" d="m0 0 8 1 5 4 3 9 1 19-2 15-3 7-3 2-11 1-5-3-5-5-7-6-6-4-6-2 2-4 5-3h5l4 7 6 8 2 1h8l3-2 1-8-9-6-5-3-1-2-2 1-3-2-1-7 4-9 9-8z" fill="#FEFEFE"/>
<path transform="translate(101,1157)" d="m0 0h17l10 3 5 6 1 3v9l-5 5h-3l-3-13-4-4h-12l-1 3v8l9 3 7 3 1 1 1 8 5 4 4 5 2 12-1 2-5 1-4-2-1-11-7-4-5-4-6-7-2-1-1 6v11l5 5-1 5h-8l-5-3v-40l2-9z" fill="#FEFEFE"/>
<path transform="translate(1374,874)" d="m0 0h10v7l-7 11-7 10-7 8-9 7-10 6h-10l-3-2v-8l3-10 7-8 11-9 7-6z" fill="#FEFEFE"/>
<path transform="translate(992,1153)" d="m0 0h4v2l2-1h10 3l3 1v2h-2v2h7l7-1-1-3h2l1-2 1 2h10l9 4 2 4-7-4-12-1-5 3-5 6 1 10 4 9 6 5 7 2 5 8-1 4-1 1h-9l-8-7-4-5-5-2-3-8-1-18-3-7-2-1h-9l-2 2v6l-4 1v4l4-2 2-3 5 1 2 3v4h-8l-2 5-3 8-3 5-5 5-11 9-3 1h-7l2-6 7-9 9-11 5-8-2-8 2 1v2h2v2h2l2-9-2-5z" fill="#B12524"/>
<path transform="translate(1355,1159)" d="m0 0 5 1 2 3-1 12 17-6h7v1l-12 3-9 4 3 2 9 2 5 5 2 5-8 1-4 1-3 11-1 4 6-3 11-7 2-4h2l1 2v6l-4 4-12 4h-3l3 4h15l6-3 1-6-1-18v-6l2 3 2 23-2 6-9 4h-12l-6-2-7 2h-9l-3-3-4-1-2-10-2 5-1-2v-9l-4-4-9-4-5-2-1-1v-5l3-3 9 1 10 2-2-5 3-1 1-10 4-4v3l-2 7v7l5 20v13l1 3 6 1 3-3 1-7-4-6-1-4v-33l-6-1z" fill="#B12525"/>
<path transform="translate(286,1170)" d="m0 0h7l10 5 4 6 1 3-1 22-5 8-6 2h-9l-8-7-4-5-2-7 4-16 4-6z" fill="#FEFEFE"/>
<path transform="translate(1842,1155)" d="m0 0 7 3 3 3 5-1 4-4h4l1 2 5-2h11l8 4 1 3h7v-5l7-2 11-1 4 4-10-1-9 2-2 4-13 1 1-5-4-1h-12l-6 9-2 7v24l4 11 5 4h8l7-3 6-10v-17l4-1 8 5 9 2 1 8-4 6-3 2-7-1-5-3 3 5 1 3h-7l-2-1v5l-12 3-16-1-5 1v-2l-5-1-11 3-8-1-1-2h9l7-2 3-7 2-15-1-19-3-9-4-3-8-1-6 2 4-4z" fill="#B32625"/>
<path transform="translate(535,1170)" d="m0 0h8l6 4 4 6 2 8v10l-4 13-4 4-4 1h-8l-8-7-6-12-1-6 3-8 6-9z" fill="#FEFEFE"/>
<path transform="translate(617,1170)" d="m0 0 6 1 8 6 3 6 1 8v9l-3 7-8 7-6 2-7-1-6-7-3-11v-11l3-8 5-5z" fill="#FEFEFE"/>
<path transform="translate(732,1180)" d="m0 0 4 1 2 2 1 7v17l-1 8 8-2 2-8v-25l5 1 5 3 1 3v17l-1 10 7 1v-8l4-10 5-1 4 13 3 5 2 1h11l6-3 4-4-2 5-5 4-5 1h-11l-6 3-5-1-4-2h-30l-8 1-8-3 3-4h2l1-7v-21l3-3z" fill="#B32625"/>
<path transform="translate(1509,1171)" d="m0 0 7 1 6 5 5 13 3 3-1 5-3 5-3 10-3 2h-12l-6-4-6-7-3-11 1-8 9-11z" fill="#FEFEFE"/>
<path transform="translate(668,1154)" d="m0 0h9l10 5 3 4-4-2-9-4h-10l-4 1-2 5-3 7v8l5 4 8 4 4 3 9 4 5 3-6 7-8 2-7-3-7-10-5 1 3 16-6-1-4 1-2-6-4-5-2-13-1-10-1-5 2-4 2-2-2-2h2v-2h7l2 4 3 2 7-9z" fill="#B32624"/>
<path transform="translate(803,125)" d="m0 0 5 1 1 1-1 25v90l-1 4-6 1-3-1-3-11v-18l1-21 1-7 1-22 3-17 1-2v-9l1-7-2-3v-3z" fill="#851C1F"/>
<path transform="translate(246,1157)" d="m0 0h14l7 4 6 8 1 5h-8l-9-7h-8l-3 2-1 3v23l2 7 8 1 6-3 8-7h3l-8 20-6 2h-9l-6-3-8-9-3-6-1-6v-11l3-10 7-10z" fill="#FEFEFE"/>
<path transform="translate(325,1160)" d="m0 0h2l3 5 1 6 2-1 1-3h5l3 7 1 10 7-1 1-4 4-2 5 2 1-3-1-4 2-1 1 2 1-2h2l2-10 2-1-1 6-1 40v6l6 3-4 1-5-4-2-8-8-2-7-6-1-8h-3l-2 4-2 5-2 1-7-4-1 9 13 1v7h-1v-6l-2 1h-11l-2-1-1-10z" fill="#B32624"/>
<path transform="translate(1706,1157)" d="m0 0h18l5 4v10l-2 5-5 4-2 6-3 28-6 1-3-1-1-7 2-21 4-9 4-5-1-7-6-1-6 2-4 7-3 2h-3l-4-4v-2h-12l-9 3-1-7 5-6 2-1h8l8 6 1 2 5-2 5-6z" fill="#FEFEFE"/>
<path transform="translate(1706,252)" d="m0 0 8 2 3 2v3l2 1-1 2 4 1 5 1 1 4 6 2 2 1 11 1 2 1 1 7h2v2h2l2 8 4 1 3 6-6-2-14-7-17-6v-2l-9-2-20-5-2-4v-4h2l1-2 4-2-4-4 1-4z" fill="#CC2A23"/>
<path transform="translate(249,1166)" d="m0 0h8l9 7 8 1 1-3 2 4 3 2-4 11-2 10 2 8-2-1v-2l-2-1-1-2-3 6-1-3 5-10-7 4-7 6-8 1-4-2-2-7v-23l3-5z" fill="#B22524"/>
<path transform="translate(1549,1172)" d="m0 0 11 1 3 2v2h2l3 7 1 3v16l-2 9-2 2h-7l-1-7-1-23-2-3-6 1-1 3-1 22 1 7h-10l-2-4-2-18v-8l3-6 5-5z" fill="#FEFEFE"/>
<path transform="translate(1781,1158)" d="m0 0h12l4 2 3 6-1 8v12l3 7 3 1-2 6-6 11-7 3h-11l-6-5-2-5v-5l3-2 5 5 2 1h8l3-1 1-6v-5l-9-3-5-5 1-4 8-3 4-3-1-5-2-2h-8l-2 5-3 5h-2l-2-4v-12l1-1z" fill="#FEFEFE"/>
<path transform="translate(1469,1157)" d="m0 0h22l2 1-2 4-5 2-13 3-2 7-1 2 6 1 15 6-1 4h-4l-11 4-2 2-2 8 1 6 1 5-4 2-7-1-2-3v-30l-1-9 1-9 3-3z" fill="#FEFEFE"/>
<path transform="translate(1171,1182)" d="m0 0h8l8 10 4 6h-3v15l-4 4-3 1h-7l-5-2-8-2v-2l-4-1-2 4-8 1-14 2-11-2v-2h20l6-3 10-9 8-8 3-10z" fill="#B32625"/>
<path transform="translate(2047,1165)" d="m0 0h1v170h-6l-1-8 1-90 1-48 1-16 1-6z" fill="#B32624"/>
<path transform="translate(832,955)" d="m0 0h12l-2 3-5 1v6l3-1v2l6-2h4l2-4 4 2 7 3v2h2v5l-7 2-7 1-5-1-3 2-6-1-1 3-7 1-4 2v-2h-2v-2l-13-2-2-1v-2l-5-2 1-5 4-1v-2l9-2 10-4z" fill="#CD2A23"/>
<path transform="translate(1589,1171)" d="m0 0 6 1 6 5 4 10-1 5-1 6 3 5 9 1 1 1v5l-2 3-6-1-10-5-2-9-2-13-1-2-4 1-2 4 1 6v14l8 2-1 5-1 1h-12l-4-6-1-13v-16l3-5 5-4z" fill="#FEFEFE"/>
<path transform="translate(825,783)" d="m0 0 7 4 20 20 11 8 11 4 12 2 18-2 12-4 10-6 3-3 2 1-7 7-15 6-12 4-11 1-18-5-14-8-13-12-3-1-2 3-1-1-2 3-8 1-1 2h-8v2h-2l-3 3-5 1-1 2-6 1-15 8-14 5-7 2-16-2-14-7 3-2 10 4 5 1h18l11-3 16-8 10-7 11-11 7-12z" fill="#B32624"/>
<path transform="translate(1272,125)" d="m0 0 3 2 2 9 4 8v31l-1 41v30l-1 1h-9l-2-7v-33l5 2 1 2 3-6v-15l-1-5 1-11-1-17-2-4-4-2 1-3h-2l-1-10 2-11z" fill="#861C1F"/>
<path transform="translate(1379,1170)" d="m0 0h6l6 5 3 6 1 11 1 14-2 6-6 3h-15l-3-3v-2l17-6 1-2v-8h-2l-1 4-15 10h-3l1-9 3-6 7-3 5 1-5-8-5-2-9-2v-3z" fill="#FEFEFE"/>
<path transform="translate(1050,1163)" d="m0 0 4 4 2 5-1 17-1 14-3 6-4 5-6 3-13 1-6 3-6-1-4-2-12 1-4-1-7 3-11-3h-12l1-2 10-1 4-4 6-10 5-2 3-9 14 2 2 6-4 4-13 4h-2l2 6 4 4h7l6-3 1-1 2-10 3-2h7l-1 5 5 8 2 1h10l6-3 4-5 2-8 1-25z" fill="#B32624"/>
<path transform="translate(891,982)" d="m0 0h38l1 1h10l7 3v2h3l3 5 3 2 2 5 10 10 6 3h2l1 2 7 2v2l8-1 17 2 8-1 4-1h7l3 5-7 2-15-1-6-1-5 2-5-1-16-5-12-5-9-9-7-11-2-5-91-1-3-2 17-2 3-1 3 1 9-1z" fill="#CC2A23"/>
<path transform="translate(618,611)" d="m0 0 2 1-1 8v28l1 18v51l-2 24 2 20h-2l-3-11-1-6-1-19v-73l1-33 3-7z" fill="#851C1F"/>
<path transform="translate(1336,124)" d="m0 0 4 1 5 4 6 9 7 15 2 5 1 10v19l-1 5h-2v2l-6-2-2-1-2-4 1-9 3-4v-5h-2l-6-9-3-12-1-9v-7l-3-5z" fill="#871C1F"/>
<path transform="translate(1563,175)" d="m0 0h3l2 51 1 21-1 2h-10l-2-2v-59l2-3z" fill="#533138"/>
<path transform="translate(1251,1159)" d="m0 0 7 1 5 8 3 6 7 6 4 11 2 7v10l-5 5h-8l-4-4-2-20-3-9-8-16v-4z" fill="#FEFEFE"/>
<path transform="translate(1326,141)" d="m0 0 5 1 8 10 7 12 1 6-2 2-9 1h-25v-8l9-16z" fill="#FEFEFE"/>
<path transform="translate(1750,1156)" d="m0 0 9 1 4 3v8l-3 16-3 7-4 13-2 8-2 1h-8l-1-2v-7l4-11 4-10 3-7-1-7-1-4-9-3-5-1-4-1 9-3z" fill="#FEFEFE"/>
<path transform="translate(963,142)" d="m0 0 5 2 6 7 7 14v6l-2 2h-32l-1-1v-7l12-18z" fill="#FEFEFE"/>
<path transform="translate(1577,1178)" d="m0 0 1 3v16l1 13 2 5-7-1-4-2-5 4-14 1-13-1v-2h9l-2-7 1-22 2-4 6-1 3 4 1 23v7l7-1 2-4 1-6v-16l-1-7 3 4 3-3h2z" fill="#B22524"/>
<path transform="translate(1129,1165)" d="m0 0h10l6 4 4 5 4 1 2-7 2 2 1 7-6 8 4 2h2l1-6h2l2-5 7-5 5-2 7 1 1 2-7-1-8 4-7 8-3 7-6 3-7 9-5 3h-12l-3-4v-9l4-4 5 1h10l5-2v-8l-2-3h-8l-6 2h-6l-2-5 1-5z" fill="#B22524"/>
<path transform="translate(1419,169)" d="m0 0h1l1 75-3 2-7-1-4-8v-24l4-11 4-20 2-7z" fill="#851C1F"/>
<path transform="translate(784,1155)" d="m0 0h9l5 4 1 7v3l4 6 4 2h6l5-3 4 6 4 5 6 17-1 5-11 3v-13l-4-13v-3l-10-1-11-8-12 2-4 2 1-4-2-4h-2l-1-2v-6l6-3z" fill="#B12524"/>
<path transform="translate(1809,517)" d="m0 0h1v209l-1 85-1 19h-1l-1-53 1-138 1-96z" fill="#742328"/>
<path transform="translate(856,1172)" d="m0 0h10l8 3 2 2v4h-10l-5 4v2l12 7 10 8 7 5 3 6-2 6-3 3-5-1-1-5 2-5-9-3-11-9-4-3v-2l-5-1-8-6v-3l2-1 4-8z" fill="#FEFEFE"/>
<path transform="translate(1059,718)" d="m0 0 6 2 4 6 4 2v2h3l2 6 5 2 1 8-3 9-3 2-6-1h-3l-2-7-4-2-3-3v-3h-2l-3-7-2-5-2-1 1-5 4-4z" fill="#CD2A23"/>
<path transform="translate(712,539)" d="m0 0 1 2-4 13-1 7v16l2 10 4 8 4 5-4-2-5-2v4l-2 1-4-2-4-8-1-5h-2l-2-10v-10l1-8 1-1 1-7 2-2 1-4h3v-4h3l2 2z" fill="#B32625"/>
<path transform="translate(318,1157)" d="m0 0 6 2 2 6 1 40h15v6l-3 3h-14l-6-3-1-2-1-16v-9l-2-10-3-8v-6z" fill="#FEFEFE"/>
<path transform="translate(580,137)" d="m0 0h2v44l-1 31h-4l-3-7-2-10-2-1-1-29 3-10 2-3h2l2-10z" fill="#861C1F"/>
<path transform="translate(938,1157)" d="m0 0 3 1 1 2v54l-1 1h-8l-2-3 1-10v-23l-2-3-8-2v-5l5-5 8-6z" fill="#FEFEFE"/>
<path transform="translate(823,1168)" d="m0 0 10 3 3 2v2l5 2 3-1 2 5 1-2 1-5 5-1h3l-4 5-3 6h-2l3 5 10 5 5 5 7 6-2 2-4 1 5 3 1 4-3 3-12 1-7-4 1-3 5 4h10l3-1v-3l-10-4-4-4-6-1v7l-2-1v-2l-5-1v-3l-4-1v-5l-2 1-2 4-1-2 4-7 3-5-4-10-7-6-2-1h-6l-2 3h-2l2-4z" fill="#B32624"/>
<path transform="translate(1949,1158)" d="m0 0 5 1 1 2v49l-2 3-6 1-3-3v-31l-5-5-3-2 1-5 7-6h2l1-3z" fill="#FEFEFE"/>
<path transform="translate(422,1170)" d="m0 0 8 1 6 5 3 8 2 7v13l-4 9-2 3h-14l2-4 5-4 2-5-1-10-4-10-1-1h-5l-3 1-4-3 1-5 6-4z" fill="#FEFEFE"/>
<path transform="translate(203,1174)" d="m0 0 3 2 2 7v24l-3 7h-2v2l-7 2h-9l-6-3-3-5 5-6h2v-2l7-5v-5l-10 3-4 4-4-2-2-3-1-9 3-6 3-3 6 1 7 4 3 5 2 9v10l-6 5-7 2 3 3h11l7-3 2-3v-21z" fill="#B12525"/>
<path transform="translate(588,1156)" d="m0 0 11 1-1 4-5 8-1 42-2 3h-8v-30l-2-5 1-7 5-13z" fill="#FEFEFE"/>
<path transform="translate(1240,670)" d="m0 0 4 2 8 8 5 3v4l-5-2 1 5-4 2 1 2h-2l2 6 3 1v15l-1 3h-2v3h-2l-1-7-4-2-4-12-1-5 3-1-2-2-5 2h-8l-5-2h-4l2-7 6-1 5-1v2l12 2 3-1-4-12z" fill="#CC2A23"/>
<path transform="translate(1285,82)" d="m0 0h5v23l-4 6-5 4-2 4-4-1v-2l-4-1-1-3-2-2 2-14v-6l5-4z" fill="#861C1F"/>
<path transform="translate(1684,1173)" d="m0 0 4 4 9 16 1 6-6 12-3 3-12 1-7-3-3-4-1-7 17 3 7-3-2-6-9-7-1-1v-9l4-4z" fill="#FEFEFE"/>
<path transform="translate(1349,1161)" d="m0 0 2 2-2 3-1 5v7l5 20v13l1 3 5 2v1h-6l-3-3-4-1-2-10-2 5-1-2v-9l-4-4-9-4-5-2-1-1v-5l3-3 9 1 10 2-2-5 3-1 1-10z" fill="#B32624"/>
<path transform="translate(1356,1160)" d="m0 0 4 2v33l3 7 2 3-2 9-3 2-6-1-2-6v-11l-5-20v-7l2-7 4-3z" fill="#FEFEFE"/>
<path transform="translate(225,1169)" d="m0 0 6 2 2 4-1 5v11l2 8 6 9 6 5 3 1h13l-1 2-3 1h-9l-8-5-5-4-3-4-5-2-5 1-3-1-2-9h-2l-2-7 2-7h2v-5l4-4z" fill="#B32624"/>
<path transform="translate(491,1166)" d="m0 0 4 1 3 4-5 4-3 10 6-3h8l5 5 2 5v8l-3 4-9 1-5-4-4-6-2-9-7-3v-2l5-1 2-4-2-6-4-1z" fill="#B32625"/>
<path transform="translate(563,1159)" d="m0 0 5 1 3 5 1 6v14l-2 28-2 1h-6l-1-1v-26l1-11-1-12z" fill="#FEFEFE"/>
<path transform="translate(580,358)" d="m0 0 4 1 1 8-4-1v39l1 4-3 2-7-1-13 4-4 8v7l1 4v8l6 19 2 7-1 4-5-13-7-24-1-7v-10l2-9 3-1 18-2 3-1 2-10v-31l-23-1v-2l22-1v2l2-1z" fill="#B32624"/>
<path transform="translate(798,86)" d="m0 0 9 1 2 3-1 23-1 1h-11l-7-2 1-13-2-4 1-7 1-1z" fill="#8A1D20"/>
<path transform="translate(195,1168)" d="m0 0 4 1 2 3-9-1-11 2-19 1 2 22-1 10-2 1h-9l-1-2-1-29-5-1v-1l17-3 22-1z" fill="#B32625"/>
<path transform="translate(450,238)" d="m0 0h3v13l1 8v23l-5 3h-4v-2h-3l-1-5v-28l6-6z" fill="#851C1F"/>
<path transform="translate(532,639)" d="m0 0h1v97l-3 21-3 9-2 1 1-7 1-6v-49l1-1v-16l1-9 1-23z" fill="#7A2226"/>
<path transform="translate(1374,85)" d="m0 0h12l1 1v26l-2 3h-11l-3-1v-28z" fill="#8B1E21"/>
<path transform="translate(1272,886)" d="m0 0 4 1-3 4-3 7-11 17-5 3-3 2v-2l-6 2-4-3 4-2 1-4 8-10 6-9h-2l-1-2h-20l-9 1 3-2 9-2h19l3 1v4l7-1v-2z" fill="#C92A23"/>
<path transform="translate(1879,1165)" d="m0 0h5l2 2-2 20v15l-3 4-6-1-3-4-1-6 1-18 2-7z" fill="#8A1E20"/>
<path transform="translate(316,1156)" d="m0 0h6l3 2-1 2-6-2-5 2 1 9 3 7 1 8v16l1 9 3 3 3 1h16l1-2v3l-5 2-13 1-7-6-2-7-3-9h-3l-1 10h-1v-21l-5-10 4 1 1-10 2-4h2l2-4z" fill="#B32625"/>
<path transform="translate(103,1186)" d="m0 0 5 3 6 7 7 5 4 2 1 11 1 2-3 1-16-2h-9v-1l8-1-1-5-4-4v-11z" fill="#B12525"/>
<path transform="translate(1362,498)" d="m0 0h21l9 2 2 17 1 26-2 30-1 27-2 2-1-99-1-2-27-1-2 6-5 16-7-2 4-1v-2h3l2-10 4-8z" fill="#B22625"/>
<path transform="translate(1015,1168)" d="m0 0h4l6 17 7 6 7 2 5 8-1 4-1 1h-9l-4-3-4-7-8-6-3-9v-12z" fill="#881D20"/>
<path transform="translate(1050,1163)" d="m0 0 4 4 2 5-1 17-1 14-3 6-4 5-6 3-13 1-6 3-6-1-4-2h-7l3-3 4-3 2-10 3-2h7l-1 5 5 8 2 1h10l6-3 4-5 2-8 1-25z" fill="#B22525"/>
<path transform="translate(5,52)" d="m0 0h1v130h-1l-2-20-1-44v-46l2-9z" fill="#271317"/>
<path transform="translate(1428,1185)" d="m0 0 5 1 4 5 1 14-3 4-4 2-7-1-4-1-1-6v-3l1-7 3-5z" fill="#B32625"/>
<path transform="translate(1406,86)" d="m0 0h14l2 1 1 6-2 9 1 11-3 3-3-5v-2h-5l-4-6v-4h-2l-1-2v-10z" fill="#841D20"/>
<path transform="translate(669,1164)" d="m0 0 8 1 13 8 5 6 1 2v6l-3 3-8-6-6-6-11-3-4-4 2-5z" fill="#B32625"/>
<path transform="translate(946,155)" d="m0 0h1l1 6-2 4-1 3v34l1 5-5-2-5-9-1-9-1-1v-11l3-5 4-6 1-6 1-2z" fill="#861C1F"/>
<path transform="translate(617,612)" d="m0 0 1 2-1 9v130l-2-3-1-6-1-19v-73l1-33z" fill="#692F35"/>
<path transform="translate(1559,85)" d="m0 0 7 1 1 1v28h-8l-4-2-1-25z" fill="#3E1A1F"/>
<path transform="translate(1818,1156)" d="m0 0h4v6l3 5-2 9v6l-1-3h-5v2l-4 1v2l-4-1-2-1v-16l4-5-1-2h6z" fill="#B32624"/>
<path transform="translate(733,123)" d="m0 0 5 1 1 1v59l-1 9-5-1-1-3v-13l2-17 1-4v-13l-5-11-1-4 1-3z" fill="#871C1F"/>
<path transform="translate(899,570)" d="m0 0h1l1 8 1 37v114h-1l-1-34-1-17z" fill="#7C282C"/>
<path transform="translate(1199,1178)" d="m0 0h1l1 10 2-6 2-1h8l3 16 3 5-1 5-2 1h-8l-2-6v-5l-3-3v-2l-5-2-6-4 2-1 4 2v-8z" fill="#AE2424"/>
<path transform="translate(790,1182)" d="m0 0 7 1 3 5-1 7-4 9-3 2-6-1-3-2-1-3v-9l3-7z" fill="#B22524"/>
<path transform="translate(992,1153)" d="m0 0h4v2l2-1h10 3l3 1v2h-2v2h7l7-1-1-3h2l1-2 1 2h10l9 4 2 4-7-4-12-1-5 3-5 6-2 3v-2l-4 1v12l2 9 5 2 7 8-1 2-7-8-5-2-3-8-1-18-3-7-2-1h-9l-2 2v6l-5 2 1-7-2-5z" fill="#B32625"/>
<path transform="translate(1290,863)" d="m0 0 1 3-7 8-2 5h2l-2 4-10 10 2-5 1-1-3-1-1 3h-2v2l-5 2-1-5h2v-2h-6l-2-3 8-4 9-6 5-4 5-2 3-3z" fill="#B32624"/>
<path transform="translate(1507,1180)" d="m0 0 8 3 7 8-1 5-5 7-2 1h-6l-4-3-1-4v-12l2-4z" fill="#B22524"/>
<path transform="translate(860,953)" d="m0 0h20l14 4 15 8 3 5h-8l-13-4-8-5-8-2-12-2-5-2z" fill="#FEFEFE"/>
<path transform="translate(661,137)" d="m0 0h2l1 4-1 20-1 44-5-3-1-7v-20l1-18h2v-8z" fill="#841C1F"/>
<path transform="translate(1043,744)" d="m0 0 5 1v4 2l4 1 3 3 2 4 5 5h2l3 5 4 5 8 2v2l5 1 3 2 6 2v1h-12l-12-5-11-9-9-11-5-6z" fill="#CA2A23"/>
<path transform="translate(1251,725)" d="m0 0h2l2 6v2 2h2l1 4 4 7v2h2l1 4 9 11 7 7v2l7 2h6l3 3 5 2 7 1 3 3-2 1-17-1-11-6-10-9-7-8-2-5-4-6-2-6-6-12z" fill="#CA2A23"/>
<path transform="translate(450,166)" d="m0 0 5 2 1 5-1 29-7-1-4-9 2-19 2-6z" fill="#831C20"/>
<path transform="translate(534,1181)" d="m0 0h7l5 4v11l-3 8-9 2-2-2-1-4v-12z" fill="#861C1F"/>
<path transform="translate(287,1180)" d="m0 0 6 1 4 5 3 6v7l-5 8-4 2h-7l2-11z" fill="#B32625"/>
<path transform="translate(726,1170)" d="m0 0 16 1 15-1 8 4 6 13 4 1 1-7 3-5 1 2-3 8-1 9-5-2-5-10-2-8-7-2h-8l-2 2-11-1-4-1h-10l-6 3-1 2v14l-2-1v-5l-7 1-1-1-1 4v17h-1l-1-7v-15l1-8 2 3 7-2 5-6z" fill="#B32625"/>
<path transform="translate(886,927)" d="m0 0h17v1l-39 3-48 7-17 4-16 4-12 4-15 6-4 1 3-3 19-8 34-10 4-4h19l16-1 23-3z" fill="#B32625"/>
<path transform="translate(776,700)" d="m0 0h2v6l2 6-1 9-1 2v8l1 7-1 4h2l2 7 4 6 5 3v3l5 2-4 1-7-3-3-3-5-3-1-5 3-2-3-9-2-1v-4l-2-6v-16l2-7z" fill="#CE2B23"/>
<path transform="translate(617,1181)" d="m0 0h5l3 5 1 10-3 9-5 2h-4l-2-6v-10l2-9z" fill="#5E3138"/>
<path transform="translate(526,1176)" d="m0 0v3l-4 8-1 6 5 13 7 8 10 2-1 2-14-1v-3h-3l-5 1-3-3v2l-6 3-12 1 1-2 13-3 3-3 1-10v-9l1-3h-3v-8l2 4 5-5z" fill="#B32625"/>
<path transform="translate(1590,1182)" d="m0 0 4 1 2 6 2 15 1 3 6 3-4 2-5 5-11 1-3-2 12-1 2-5-6-1-2-1-1-14-1-6 3-5z" fill="#B22625"/>
<path transform="translate(748,1180)" d="m0 0 5 1 5 3 1 3v17l-1 5h-2l-1 4-3-1-3-2z" fill="#8D1D20"/>
<path transform="translate(1135,1021)" d="m0 0h2v2h2v2l9 3h25l9-2 11-3 9 1 1 2-11 5-13 2-17 1-18-4-9-7z" fill="#CE2B23"/>
<path transform="translate(1185,1197)" d="m0 0h2v15l-4 4h-11l-4-2-2-3v-6l3-3h10l5-2z" fill="#FEFEFE"/>
<path transform="translate(732,1180)" d="m0 0 4 1 2 2 1 7v17h-2v6h-2l-2-9-1-4-4 2-1-6v-11l3-3h2z" fill="#8A1D1F"/>
<path transform="translate(1087,976)" d="m0 0 6 2 6 4-2 4-1 3 10 8 4 4 11 3-2 4h-2l1 3-3-1-6-7-5-3-17-13-2-1v-2l-6-2-5-3-5-1v-1h7l6 2 4-1z" fill="#CA2A23"/>
<path transform="translate(203,1174)" d="m0 0 3 2 2 7v24l-3 7h-2v2l-7 2h-9l-6-3-3-5 5-6h2v-2l7-5 1-2h2v10l-6 5-7 2 3 3h11l7-3 2-3v-21z" fill="#B02524"/>
<path transform="translate(440,123)" d="m0 0h8l5 3-1 9-4 6-6 14-2-3z" fill="#881C1F"/>
<path transform="translate(1828,1182)" d="m0 0 3 4 11 6 2 2-1 8-4 3h-8l-5-4 2-14-4-4z" fill="#B32624"/>
<path transform="translate(1702,183)" d="m0 0h5v2l9 2 7 3 6 3-2 1-2 4-7 1-9-3-2-2-7-1-4-3 3-2 1-3z" fill="#CB2A23"/>
<path transform="translate(107,1165)" d="m0 0h12l5 5 1 9-1 1h-8l-10-2-1-1v-8z" fill="#8A1D1F"/>
<path transform="translate(374,181)" d="m0 0h8l2 6-2 5-10 3-2 2-4-2-5-1-2-4-2-1 7-4h4v-2z" fill="#CD2A23"/>
<path transform="translate(1140,945)" d="m0 0h3l4 4 7 1 9-1 1 3 3 2 4-2-6 7v5 3l-3-5 1-4-5-2-9 3-3-2-1-4h-3l-1-2-2 1-3-2-1-3z" fill="#CD2A23"/>
<path transform="translate(282,303)" d="m0 0 1 2-5 15-2 5-7 6-8 4-3-1 8-12 8-10 2-4h3l2-4z" fill="#8B1D1F"/>
<path transform="translate(1371,86)" d="m0 0 2 4 4-1 3 3 2 9v7h-2v2h-3v2l-6 2z" fill="#B32625"/>
<path transform="translate(1581,156)" d="m0 0h2v2h2l2 6-3 19-4 16-2-3v-28z" fill="#CE2B23"/>
<path transform="translate(659,85)" d="m0 0 6 1 1 2-1 10h-2l-1 3h-8l-6-11v-2l5-2z" fill="#861D20"/>
<path transform="translate(1316,1192)" d="m0 0 4 1 4 4 6 4 2 3v5l-1 1h-8l-10-6 2-3h-2v-7h3z" fill="#B22625"/>
<path transform="translate(1052,1018)" d="m0 0 5 1 11 4 6 1 6 3 6 1h15l10-1 8-5h6l-4 4-7 3-8 2h-27l-9-2-18-10z" fill="#CE2B23"/>
<path transform="translate(385,1165)" d="m0 0 6 1 5 6v3l-8 2-5 3h-6l-1-8 3-5z" fill="#8B2023"/>
<path transform="translate(859,1170)" d="m0 0 10 1 8 5 1 6-2 7h-2l3 8-4-2-13-8 2-4 4-3h8l2 1-2-5-8-3-10-1z" fill="#B22524"/>
<path transform="translate(1084,1186)" d="m0 0h5l4 4v9l-1 1h-12l-4-3 1-6 5-4z" fill="#FEFEFE"/>
<path transform="translate(1356,206)" d="m0 0 4 1-1 10-10 22-4-1 2-10 1-7h2v-5h2v-2h2v-4h2z" fill="#8C1D1F"/>
<path transform="translate(1036,1165)" d="m0 0 7 1 2 4v11l-2 2h-7l-3-5v-10z" fill="#613037"/>
<path transform="translate(1903,1163)" d="m0 0 4 1 7 7 1 2v7l-8 1-5-2-1-1v-10z" fill="#851E21"/>
<path transform="translate(851,1202)" d="m0 0 5 2 5 4 9 4-1 4-3 1h-10l-6-5-2-4 1-5z" fill="#FEFEFE"/>
<path transform="translate(966,1167)" d="m0 0h7l3 3-1 4-7 9-6 3-1-4v-5l-2-3 3-1 1-4z" fill="#8D1D20"/>
<path transform="translate(768,157)" d="m0 0 3 1-1 4v11l-1 6-1 53h-1l-1-27-1-12v-31z" fill="#73252A"/>
<path transform="translate(1129,1165)" d="m0 0h10l6 4 1 5-11 2-9 1-1-7z" fill="#841F22"/>
<path transform="translate(796,703)" d="m0 0 4 2v10l-8 5 3 2-2 5-4-2-1-2v-9l-3-6 2-3 4 2 2 3h3v-4l-2-1z" fill="#CD2A23"/>
<path transform="translate(1028,674)" d="m0 0 4 2 13 11 4 3 5 5-3 2-2-1v2l-6-1-6-8-3-2v-4h-2z" fill="#CC2A23"/>
<path transform="translate(701,1154)" d="m0 0 7 1 5 3v5l-5 4h-6l-2 2-1-1-2 2-4-5 7-1-2-2v-6z" fill="#B32624"/>
<path transform="translate(705,1185)" d="m0 0 1 2 7-1 1 6-2 7-3 7-5 2-1-18z" fill="#CD2A23"/>
<path transform="translate(1797,1160)" d="m0 0 4 4 1 3v10l-1 2v6l1 5 7-2 9-3h3l2 10-4-4v-3l-6 2-4 2-1 4-4 2-1-4-3-2-2-6v-12l1-8z" fill="#B32625"/>
<path transform="translate(1836,1165)" d="m0 0 5 2 3 6v8l-12 1-2-2 2-5 3-9z" fill="#492A31"/>
<path transform="translate(1064,935)" d="m0 0h6l6 2 2 1-1 1 2 1v2l6-1 3 1v2h9v-2h2v-2h2l1-2 2 6-9 3-4 1v-1h-6l2 2-4-1-1-3-5-2-1 2-9-5-3-1z" fill="#CD2A23"/>
<path transform="translate(509,1159)" d="m0 0 10 2 2 2-1 6-2 4-5-1-5-4-4-1 1-5z" fill="#FEFEFE"/>
<path transform="translate(1427,1187)" d="m0 0h5l4 5v7l-2 1h-9l-3-3 1-6z" fill="#FEFEFE"/>
<path transform="translate(1101,150)" d="m0 0h2l2 7v12l-2 1-9-1-1-3 6-11h2l-1-4z" fill="#8F1E20"/>
<path transform="translate(1394,764)" d="m0 0 1 3 1 10-5 10-3 5h-2l-1 4-6 7-5 1 6-7 5-10 4-7 3-7z" fill="#CE2B23"/>
<path transform="translate(1084,1184)" d="m0 0m-4 1h4v2l-6 4-1 6 4 3 6 1v1h-7l-5-2-2-3-2 1v6l-3-1-1-7-1-3 3-1 1-2-2-1 3-2h3v2l5-3z" fill="#AC2625"/>
<path transform="translate(1641,123)" d="m0 0 7 1 1 1v7l-2 5-4 1-3-2-3-11z" fill="#8C1D1F"/>
<path transform="translate(1884,1170)" d="m0 0h1l-1 24v8l-3 4h-3l-1-4h-2v-10l4-2 1 3h2v-10z" fill="#B22524"/>
<path transform="translate(807,132)" d="m0 0h1v20l-1 9-1 43-2-2v-44z" fill="#563239"/>
<path transform="translate(806,161)" d="m0 0h1l1 54v27h-1l-2-21-1-2v-14l1-1z" fill="#7C2D31"/>
<path transform="translate(784,1157)" d="m0 0h9l5 4-1 5h-12l-4-4 1-4z" fill="#FEFEFE"/>
<path transform="translate(1074,582)" d="m0 0 1 2h2v2h3l4 5 9 6 1 2 3 1v2l5 1 4 2 1 3-3 1-5-2-18-14-7-7z" fill="#C62923"/>
<path transform="translate(507,1158)" d="m0 0h11l4 4v7l-4 7-4-2h-3l-7-3-6-1 4-5 2-5zm2 1-5 5v3l7 3 4 3h3l3-7-1-4-3-2z" fill="#B32625"/>
<path transform="translate(1515,123)" d="m0 0h7l4 6v5l-4-1-3-1v4h-2v2l-3-1v-13z" fill="#8B1D1F"/>
<path transform="translate(1555,91)" d="m0 0 2 1 1 5h3l2 5v6l-4 6-4-1z" fill="#5D3138"/>
<path transform="translate(687,1172)" d="m0 0 4 2 4 5 1 2v6l-3 3-8-6-7-7h3l4 2 5-1z" fill="#B32625"/>
<path transform="translate(1322,610)" d="m0 0 5 2 8 6 10 8 5 5 2 4-4-1-13-11-13-10z" fill="#C82923"/>
<path transform="translate(531,175)" d="m0 0 2 1 1 32-1-2h-2v-4h-2l-1-3v-11l2-11z" fill="#7E1F22"/>
<path transform="translate(203,1174)" d="m0 0 3 2 2 7v24l-3 7h-2v2l-7 2h-9l-3-1 1-2h11l7-3 2-3v-21z" fill="#B32625"/>
<path transform="translate(1283,577)" d="m0 0 6 2 7 8 3 2v2l7 1 4 2-2 6-5-2-15-14-5-5z" fill="#C52923"/>
<path transform="translate(1735,216)" d="m0 0 7 1 8 4 19 9 5 5v2l-5-2-16-9-17-7z" fill="#C72923"/>
<path transform="translate(1636,1199)" d="m0 0 2 3-1 11-4 2-6-1-1-3 5-8z" fill="#FEFEFE"/>
<path transform="translate(879,520)" d="m0 0 6 5 6 10 8 18v25h-1l-2-19-3-12-6-14-7-10z" fill="#B32625"/>
<path transform="translate(1530,140)" d="m0 0 2 2 1 4-1 3h6l1 4-7 4-3 3-2-3 1-5-2-7 2-4z" fill="#861C1F"/>
<path transform="translate(677,1167)" d="m0 0 9 3 4 5 1 4-8 1-3-3-6-2 3-3-1-3z" fill="#881C1F"/>
<path transform="translate(1205,1181)" d="m0 0h8l1 3v10l-7-1-3-3z" fill="#861C1F"/>
<path transform="translate(1630,1171)" d="m0 0 5 1 3 5v6l-2 3-5-2-3-6v-5z" fill="#FEFEFE"/>
<path transform="translate(1155,1168)" d="m0 0 2 2 1 7-7 9-2-1v-6l-2-3h-8l-6 2h-6v-1l11-3h8l-1-4 6 5 3-1z" fill="#B32625"/>
<path transform="translate(1049,934)" d="m0 0 1 4 3-1 5 5 4 3 3 1v2h3v2l4 1-1 4-3 2-1-4-6-4-5-5-7-3-5-2 2-3h2z" fill="#CC2A23"/>
<path transform="translate(824,961)" d="m0 0h7l-1 6-7 1-8 1-5 1 2-4 3-3z" fill="#B32625"/>
<path transform="translate(1124,955)" d="m0 0 14 1v2l5 2 10 8-1 5-2-2-2-4-8-4-14-5-2-1z" fill="#C72923"/>
<path transform="translate(1194,142)" d="m0 0 1 2 2 1h-2l3 5v12l-1 6-4 3v-26z" fill="#CE2B23"/>
<path transform="translate(534,1181)" d="m0 0h7l5 4v11l-3 8-9 2-2-2-1-4v-12zm1 2-2 2-1 5v9l3 6 6-2 1-4-1-2 3-1 1-3v-7l-4-3z" fill="#B32625"/>
<path transform="translate(779,747)" d="m0 0 3 1 3 6 6 4v3l5 2-4 1-7-3-3-3-5-3-1-5z" fill="#CC2A23"/>
<path transform="translate(1550,1180)" d="m0 0 5 1 1 1v15l-2-1-2-6-3 1-2 2v-11z" fill="#881E21"/>
<path transform="translate(1052,224)" d="m0 0 5 5v5l2 1 4 4v2h2v2l2 1-5 1-11-11-1-4 2-1v-3z" fill="#C82A23"/>
<path transform="translate(1757,196)" d="m0 0 5 2 14 11 16 16 3 4-1 2-6-7-7-6v-2l-4-2-10-9-9-6z" fill="#7F2226"/>
<path transform="translate(609,174)" d="m0 0h3v29l-3-1-2-6v-9z" fill="#861C1F"/>
<path transform="translate(1117,619)" d="m0 0h4v2l5 2 6 5v2h2v2h3v2h2v3l-5-1-10-9-7-5z" fill="#C72923"/>
<path transform="translate(1514,194)" d="m0 0 2 3v7l1 2v28l-1 5h-1l-1-7z" fill="#861C1F"/>
<path transform="translate(93,1164)" d="m0 0 2 1v34l-1 12-2-1v-13l1-16-2-7v-6h2z" fill="#B32625"/>
<path transform="translate(1288,85)" d="m0 0h2v20l-4 6-6 4 3-9 3-7z" fill="#B42624"/>
<path transform="translate(752,501)" d="m0 0 3 1-15 9-12 11-5 3 2-4 5-6h2l2-4 5-4z" fill="#B32625"/>
<path transform="translate(1394,1181)" d="m0 0 2 3 2 23-2 6-9 4h-12v-2l13-1 6-3 1-6-1-18z" fill="#B32625"/>
<path transform="translate(1289,497)" d="m0 0 10 1 11 4 2 2-5-1-7-2-21-1-10 2-4 1 2-3 5-2z" fill="#B32625"/>
<path transform="translate(789,95)" d="m0 0 4 4 2 4 3 2-1 5-1 3-7-1 1-13z" fill="#B32625"/>
<path transform="translate(842,1190)" d="m0 0 3 1v2l7-1 4 3-1 2-7 2h-8v-6h2z" fill="#C62923"/>
<path transform="translate(700,1156)" d="m0 0h8l4 3-1 4-6 2-5-3-1-5z" fill="#FEFEFE"/>
<path transform="translate(875,1208)" d="m0 0 9 3-1 9 5 1 4-3-2 5-1 1h-10v-7-2l-2-4-2-1z" fill="#B12625"/>
<path transform="translate(1770,1199)" d="m0 0h1l3 10 5 4h11l7-3 5-10 1 3-5 9-5 3-10 3-7-4-5-6z" fill="#B32625"/>
<path transform="translate(648,346)" d="m0 0h7v1l-7 2 2 1v3l-5 2-6-1-2-3v-3z" fill="#B32625"/>
<path transform="translate(1041,992)" d="m0 0 4 2 12 11 5 4-9-1-3-3v-2l-4-1-4-4 1-3-2-1z" fill="#CE2B23"/>
<path transform="translate(1240,887)" d="m0 0h19l3 1v6l-3 3v-3l1-2h-2l-1-2h-20l-9 1 3-2z" fill="#B32625"/>
<path transform="translate(1055,498)" d="m0 0h24l12 2 9 3-4 1-6-2-25-2-13 1z" fill="#B32625"/>
<path transform="translate(1327,580)" d="m0 0h3v11l-14-3 3-3 5-1 1-2z" fill="#CC2A23"/>
<path transform="translate(1148,497)" d="m0 0m-1 1v3l-5 11-4 8-4 1-11-6 2-1 4 2h9l3-10z" fill="#B32625"/>
<path transform="translate(265,323)" d="m0 0 2 3 5-2 2 3-8 6-5 2-3-1z" fill="#B12524"/>
<path transform="translate(1782,1192)" d="m0 0h9v5l-7 1v3l-5 1-2-3 3-6z" fill="#CE2B23"/>
<path transform="translate(1360,161)" d="m0 0 2 4 1 5v24l-1 1h-5l1-3h2z" fill="#B32625"/>
<path transform="translate(276,1206)" d="m0 0 7 6 4 3h14l-1 2-11 1-9-2-5-4z" fill="#B32625"/>
<path transform="translate(1677,1156)" d="m0 0 7 1 7 2 1 6 6-4 4-4-2 5-6 5-3-1-5-5-3-2h-8l-5 5-3 2 2-5 5-4z" fill="#B32625"/>
<path transform="translate(517,587)" d="m0 0h2l10 24 3 7v7l-2-3-5-13-8-20z" fill="#941F21"/>
<path transform="translate(1499,161)" d="m0 0h2v31l-2-2-2-9 2-18z" fill="#861C1F"/>
<path transform="translate(1836,1165)" d="m0 0 4 2h-4v10l1 2 6 1-1-10 2 3v8l-12 1-2-2 2-5 3-9z" fill="#AB2726"/>
<path transform="translate(1210,888)" d="m0 0h3l-1 4-5 2-2 5-6 1v-4l8-6z" fill="#B32625"/>
<path transform="translate(452,241)" d="m0 0h1l2 16 1 16v11h-6l3-2v-23l-1-8z" fill="#B32625"/>
<path transform="translate(1623,1199)" d="m0 0 4 2-3 9-5 2-1-1v-6l3-5z" fill="#CD2A23"/>
<path transform="translate(808,1165)" d="m0 0 7 1 3 3h-2l-1 4h-5l-1-3h-3l-1-4z" fill="#B32625"/>
<path transform="translate(1901,1168)" d="m0 0h1l1 7 5-1 1 3-1 2h6v-6h1v7l-8 1-5-2-1-1z" fill="#B32625"/>
<path transform="translate(1130,1153)" d="m0 0 8 1 10 5 3 4-10-5-4-1h-17l3-3z" fill="#B32625"/>
<path transform="translate(465,1180)" d="m0 0 5 2v15h-1l-1-8-4-3h-3l1-5z" fill="#812124"/>
<path transform="translate(1760,1182)" d="m0 0 1 3 2 1-2 4h-2v7h-2l-2 6-3 3 3-10 3-9z" fill="#B32625"/>
<path transform="translate(668,1154)" d="m0 0h9l10 5 3 4-4-2-9-4h-10l-4 1-1 3h-2l2-4z" fill="#B32625"/>
<path transform="translate(378,1154)" d="m0 0h11l10 4 1 2-7-2-8-1h-9l-6 3 2-4z" fill="#B32625"/>
<path transform="translate(1245,974)" d="m0 0h10l10 2 5 2v2h2l2 4 2 1v2l-4-2-6-6-14-3-7-1z" fill="#CE2B23"/>
<path transform="translate(1725,181)" d="m0 0 6 1 17 7 7 5v2l-18-9-12-5z" fill="#951F21"/>
<path transform="translate(758,1187)" d="m0 0h1v17l-1 5-3-4h-2v-7l3-2 1 1z" fill="#B32625"/>
<path transform="translate(1310,1193)" d="m0 0h6l-3 1 1 5 1 2 2 1-5 1-5-4-1-4z" fill="#C92A23"/>
<path transform="translate(1564,175)" d="m0 0h2v19l-2 2-1-1v-17z" fill="#271317"/>
<path transform="translate(814,1208)" d="m0 0 4 1 2 7h14l3-2-2 4-3 1h-9l-5-3-1-4-4-1z" fill="#B32625"/>
<path transform="translate(822,982)" d="m0 0 5 1-2 2 18 1v1l-15 1-13-1 3-1v-3z" fill="#CE2B23"/>
<path transform="translate(674,1191)" d="m0 0 6 1 5 5-3 3-4-1z" fill="#861C1F"/>
<path transform="translate(1175,1169)" d="m0 0 7 1 1 2-7-1-8 4-7 8-1 3-2-1 1-4h2l2-5 7-5z" fill="#B32625"/>
<path transform="translate(273,249)" d="m0 0 1 3-4 8-5 2 1-6 5-5z" fill="#8B1D1F"/>
<path transform="translate(1070,1172)" d="m0 0 4 2h3l1 3-4 4-4-4-4-2 1-2z" fill="#B32625"/>
<path transform="translate(1838,1192)" d="m0 0 5 1 1 1-1 8-2 2h-5l3-3v-6z" fill="#921E20"/>
<path transform="translate(1423,563)" d="m0 0 6 4 1 3-3 3-1-1-2 1-3-4z" fill="#B42624"/>
<path transform="translate(761,628)" d="m0 0 9 3-14 6-3-1 4-2-1-4z" fill="#B32625"/>
<path transform="translate(1581,212)" d="m0 0 5 2 2 10-1 2h-2l-4-10z" fill="#CE2B23"/>
<path transform="translate(1109 1e3)" d="m0 0 12 3-2 4h-2l1 3-3-1-6-7z" fill="#CE2B23"/>
<path transform="translate(561,420)" d="m0 0h5l1 4-1 3h-3l-1 2v-2l-4-1 2-2z" fill="#B32624"/>
<path transform="translate(1771,270)" d="m0 0 5 3 15 15-1 2-10-10-8-7z" fill="#752B2F"/>
<path transform="translate(1251,1020)" d="m0 0h6l7 3-4 1-10-1-6 1-2-2 1-1z" fill="#CE2B23"/>
<path transform="translate(1290,920)" d="m0 0 2 1-11 6h-2v2l-5 4-2-1 5-6h2v-2h2l1-2 6-1z" fill="#CE2B23"/>
<path transform="translate(1340,1208)" d="m0 0v3l-4 3-1 3-7 2-9-1-2-2h12l4-1 1-3z" fill="#B32625"/>
<path transform="translate(993,959)" d="m0 0 6 1 2 6-7 1v-4l-3-1z" fill="#B32624"/>
<path transform="translate(548,145)" d="m0 0 7 2 7 7-1 3-6-5-4-4z" fill="#C82A23"/>
<path transform="translate(896,553)" d="m0 0h3v25h-1l-2-19z" fill="#89292C"/>
<path transform="translate(847,1192)" d="m0 0 7 1 2 4-6 1-4 1 2-4h-2z" fill="#CE2B23"/>
<path transform="translate(1563,103)" d="m0 0 3 3v8h-7l2-4z" fill="#271317"/>
<path transform="translate(999,1166)" d="m0 0 4 1 1 1v5h-6l-1-3z" fill="#642024"/>
<path transform="translate(1251,725)" d="m0 0h2l2 6v2 2h2l1 4v3l-4-4-3-9z" fill="#CE2B23"/>
<path transform="translate(1092,721)" d="m0 0 4 2 12 12 2 5-15-15-3-2z" fill="#962123"/>
<path transform="translate(1760,211)" d="m0 0 6 4-1 4-5-1v-2l-4-2h3z" fill="#CE2B23"/>
<path transform="translate(1151,143)" d="m0 0 6 5 1 7-4-2-4-8z" fill="#CB2A23"/>
<path transform="translate(604,338)" d="m0 0 4 1 1 4-3-1-1 3h-4l-2-2z" fill="#B32625"/>
<path transform="translate(1125,178)" d="m0 0h1l1 16-2 1-1-3v-12z" fill="#861C1F"/>
<path transform="translate(175,1178)" d="m0 0h3l-2 8h-2l-1 2-1-1 1-7z" fill="#8C1D1F"/>
<path transform="translate(1836,1165)" d="m0 0 4 2h-4v10l1 2-4-1v-8z" fill="#8E2023"/>
<path transform="translate(503,1165)" d="m0 0 1 2h4l2 4-12-1z" fill="#BB2724"/>
<path transform="translate(803,87)" d="m0 0h4l1 6-2 3h-3l-1-4z" fill="#2C1418"/>
<path transform="translate(882,1201)" d="m0 0 5 2 5 4 2 4-1 7-1-3-2-8-4-2z" fill="#B32625"/>
<path transform="translate(1296,712)" d="m0 0 4 2 12 11-1 2-11-10-4-3z" fill="#942123"/>
<path transform="translate(891,540)" d="m0 0h2l5 11v2l-3 1-4-12z" fill="#B02524"/>
<path transform="translate(1031,1191)" d="m0 0 8 2 5 8-1 3v-2h-3l-2-7-7-2z" fill="#B32625"/>
<path transform="translate(1711,1174)" d="m0 0h2l-1 6h-2l-1 5h-2l1-8z" fill="#881C1F"/>
<path transform="translate(1743,1164)" d="m0 0 6 1 1 2v6l-7-6z" fill="#8E1D20"/>
<path transform="translate(1790,1155)" d="m0 0 7 3v2l-16-2 1-2z" fill="#B32625"/>
<path transform="translate(905,949)" d="m0 0 6 1 5 3-1 3-4-2-6-4z" fill="#C62923"/>
<path transform="translate(1796,297)" d="m0 0 4 4 6 9-1 3-8-11z" fill="#822528"/>
<path transform="translate(777,124)" d="m0 0h6l1 6-2 1v-2l-4-1z" fill="#BF2824"/>
<path transform="translate(856,966)" d="m0 0 4 2 1 3h-8l-1-2h2v-2z" fill="#B32625"/>
<path transform="translate(528,754)" d="m0 0h2l-2 10-3 3 1-7z" fill="#901F21"/>
<path transform="translate(1350,923)" d="m0 0 3 1 1 4-6 1-1-5z" fill="#CE2B23"/>
<path transform="translate(1743,188)" d="m0 0 5 1 7 5v2l-12-6z" fill="#7C2125"/>
<path transform="translate(1330,128)" d="m0 0 4 1 1 4-4 1-3-3z" fill="#861C1F"/>
<path transform="translate(1038,932)" d="m0 0 2 1-1 2 4 1 1 2-11-3-1-2h5z" fill="#CE2B23"/>
<path transform="translate(1205,1181)" d="m0 0h8l1 3v7l-2-3-2-5h-5z" fill="#602E34"/>
<path transform="translate(866,1181)" d="m0 0h7l-1 2-7 3-3-1z" fill="#861C1F"/>
<path transform="translate(993,1174)" d="m0 0 2 1-3 7-4-2v-2h2l1-3z" fill="#CE2B23"/>
<path transform="translate(1421,230)" d="m0 0h1l1 15-2 2-3-1 2-2z" fill="#B32625"/>
</svg>
